<?xml version="1.0" encoding="UTF-8"?>
<svg width="1161px" height="506px" viewBox="0 0 1161 506" version="1.1" xmlns="http://www.w3.org/2000/svg" xmlns:xlink="http://www.w3.org/1999/xlink">
    <title>Slice</title>
    <defs>
        <linearGradient x1="50.004%" y1="50.0002625%" x2="50.00564%" y2="50.0002625%" id="linearGradient-1">
            <stop stop-color="#4F64B8" offset="0%"></stop>
            <stop stop-color="#4F64B8" offset="1.1236%"></stop>
            <stop stop-color="#2D4DA1" offset="37.0786%"></stop>
            <stop stop-color="#2D48A0" offset="50%"></stop>
            <stop stop-color="#455EB4" offset="69.1011%"></stop>
            <stop stop-color="#27417D" offset="80.8989%"></stop>
            <stop stop-color="#2D4DA1" offset="96.0674%"></stop>
            <stop stop-color="#2D4DA1" offset="100%"></stop>
        </linearGradient>
    </defs>
    <g id="Logo" stroke="none" stroke-width="1" fill="none" fill-rule="evenodd">
        <g id="Beauty_Kingdom_academyAWARD-_logo_BLUE" transform="translate(0.000000, -0.000000)">
            <g id="g10" transform="translate(580.578652, 253.092660) scale(-1, 1) rotate(-180.000000) translate(-580.578652, -253.092660) translate(0.000000, 0.000000)">
                <g id="g12" transform="translate(366.511991, 305.415992)" fill="#fff" fill-rule="nonzero">
                    <g id="g22">
                        <path d="M62.4213318,177.210662 C63.7199984,177.018662 64.9479984,176.790662 66.106665,176.529329 L66.106665,176.529329 C74.3359981,174.571996 81.0666646,170.418662 86.1106645,164.179996 L86.1106645,164.179996 C91.0693311,158.050663 94.2186643,151.07733 95.4839976,143.455996 L95.4839976,143.455996 C96.7386642,135.862663 96.1479976,128.223997 93.729331,120.739997 L93.729331,120.739997 C91.2613311,113.094664 86.8319978,106.651997 80.087998,102.263997 L80.087998,102.263997 C71.1533316,96.4533309 59.2813319,94.5479976 59.2813319,94.5479976 L59.2813319,94.5479976 C60.2053318,94.4839976 74.0693315,93.4146643 82.1359979,90.9359977 L82.1359979,90.9359977 C87.5293311,89.2799978 92.4639977,86.9706645 96.6586643,83.6133312 L96.6586643,83.6133312 C100.689331,80.403998 104.110664,76.1013314 106.822664,70.8306649 L106.822664,70.8306649 C109.493331,65.638665 111.343997,59.9373318 112.326664,53.881332 L112.326664,53.881332 C113.305331,47.7959988 113.169331,41.551999 111.925331,35.3066658 L111.925331,35.3066658 C110.653331,28.9706659 108.251997,22.9693328 104.007997,18.0693329 L104.007997,18.0693329 C88.4853311,0.150666663 62.4213318,0.150666663 62.4213318,0.150666663 L62.4213318,0.150666663 L93.2786643,0.211999995 C101.657331,0.211999995 109.291997,2.34933327 115.962664,6.5666665 L115.962664,6.5666665 C122.722664,10.8413331 128.16933,16.2919996 132.154663,22.7639994 L132.154663,22.7639994 C136.147997,29.2639993 138.627997,36.5066658 139.530663,44.2853322 L139.530663,44.2853322 C140.418663,52.0039987 139.395997,59.4213318 136.49333,66.310665 L136.49333,66.310665 C134.37733,71.2133316 131.83733,75.3946648 128.823997,78.635998 L128.823997,78.635998 C111.913331,96.8133309 81.5493313,95.9186643 81.5493313,95.9186643 L81.5493313,95.9186643 C81.5493313,95.9186643 116.89333,103.097331 122.30133,133.95333 L122.30133,133.95333 C123.227997,139.238663 122.371997,144.60533 120.84133,149.770663 L120.84133,149.770663 C119.314664,154.915996 116.754664,159.577329 113.234664,163.618663 L113.234664,163.618663 C109.702664,167.674662 105.219997,170.999996 99.9093308,173.501329 L99.9093308,173.501329 C94.617331,175.990662 88.4093311,177.254662 81.4586646,177.254662 L81.4586646,177.254662 L62.4213318,177.210662 Z M0,177.049329 C3.45866658,174.961329 6.19333318,172.270662 8.14266646,169.031996 L8.14266646,169.031996 C10.3693331,165.339996 11.7786664,160.849329 12.329333,155.691996 L12.329333,155.691996 C12.853333,150.787996 13.1146663,145.238663 13.1146663,139.199997 L13.1146663,139.199997 L13.1146663,37.7639991 C13.1146663,31.8879992 12.853333,26.470666 12.329333,21.6479995 L12.329333,21.6479995 C11.7839997,16.6226663 10.4799997,12.169333 8.45866646,8.41066646 L8.45866646,8.41066646 C6.62533317,5.02266654 3.91333324,2.19866661 0.37999999,0 L0.37999999,0 L38.727999,0.0786666647 L38.727999,35.2679991 L38.727999,177.135996 L0,177.049329 Z" id="path42"></path>
                    </g>
                </g>
                <g id="g44" transform="translate(614.231985, 307.306659)" fill="#fff" fill-rule="nonzero">
                    <g id="g54">
                        <path d="M112.146664,177.290662 C122.94933,173.458662 116.627997,158.425329 116.627997,158.425329 L116.627997,158.425329 C120.19733,161.738663 133.18533,172.595996 136.111997,174.575996 L136.111997,174.575996 C137.583997,175.573329 139.102663,176.477329 140.651996,177.290662 L140.651996,177.290662 L112.146664,177.290662 Z M0.0986666642,177.290662 C1.92399995,176.178662 3.64666658,174.789329 5.2493332,173.143996 L5.2493332,173.143996 C9.38799977,168.930662 11.8199997,163.834663 12.4826664,157.993329 L12.4826664,157.993329 C13.0879997,152.582663 13.397333,146.35733 13.397333,139.48933 L13.397333,139.48933 L13.397333,37.7999991 C13.397333,28.0439993 12.8719997,21.0093328 11.7959997,16.3093329 L11.7959997,16.3093329 C10.0986664,8.60666645 6.24933318,3.17999992 0.362666658,0.183999995 L0.362666658,0.183999995 C0.243999994,0.12133333 0.12133333,0.0599999985 0,0 L0,0 L52.4746654,0 C48.8493321,2.11733328 45.9973322,4.87199988 43.9839989,8.21999979 L43.9839989,8.21999979 C41.7573323,11.913333 40.3493323,16.3573329 39.7946657,21.4333328 L39.7946657,21.4333328 C39.2733324,26.2573327 39.0106657,31.7599992 39.0106657,37.7999991 L39.0106657,37.7999991 L39.0106657,84.5426646 L39.0106657,85.1239979 L39.0106657,116.987997 L39.0106657,139.48933 C39.0106657,145.582663 39.3213324,151.103996 39.927999,155.897329 L39.927999,155.897329 C40.5653323,160.946663 42.0159989,165.375996 44.2359989,169.069329 L44.2359989,169.069329 C46.2586655,172.415996 49.1093321,175.177329 52.7239987,177.290662 L52.7239987,177.290662 L0.0986666642,177.290662 Z M64.7199984,109.282664 C59.6679985,104.451997 55.217332,100.173331 51.365332,96.4279976 L51.365332,96.4279976 C51.2053321,96.2759976 51.0759987,96.1519976 50.9213321,96.0013309 L50.9213321,96.0013309 L50.9226654,96 L50.9879987,95.8613309 L52.7039987,93.781331 C56.1266653,89.6199978 60.3626652,84.5519979 65.4119984,78.5586647 L65.4119984,78.5586647 C70.4746649,72.5599982 75.6693314,66.3039983 80.991998,59.7986652 L80.991998,59.7986652 C86.3093312,53.293332 91.4599977,46.9106655 96.4399976,40.655999 L96.4399976,40.655999 C101.421332,34.3973325 105.521331,28.9319993 108.651997,24.3706661 L108.651997,24.3706661 C115.16933,14.489333 116.55733,7.44933315 112.894664,2.84399993 L112.894664,2.84399993 C112.047997,1.78133329 110.998664,0.834666646 109.741331,0 L109.741331,0 L168.842662,0 C165.227996,1.84266662 161.575996,4.25333323 157.926663,7.20799982 L157.926663,7.20799982 C152.67333,11.4626664 148.05333,16.0399996 144.190663,20.8199995 L144.190663,20.8199995 L76.8186647,104.135997 L76.8159981,104.137331 L69.2613316,113.48133 L69.2946649,113.511997 L69.2226649,113.603997 C67.7133316,112.154664 66.182665,110.679997 64.7199984,109.282664" id="path74"></path>
                    </g>
                </g>
                <g id="g76" transform="translate(557.026653, 247.126660)" fill="url(#linearGradient-1)" fill-rule="nonzero">
                    <g id="g86">
                        <path d="M0.66666665,0 L0.66666665,259.05866 L0.66666665,0 Z" id="path106"></path>
                    </g>
                </g>
                <polygon id="path126" stroke="#fff" stroke-width="2.6666666" points="557.693319 247.127994 557.693319 247.127994 557.693319 506.185321 557.693319 506.185321"></polygon>
                <g id="g128" transform="translate(-0.000000, 114.053330)" fill="#fff" fill-rule="nonzero">
                    <g id="g130" transform="translate(-0.000000, 0.000000)">
                        <g id="g136" transform="translate(-0.000000, 0.000000)">
                            <path d="M-5.36556939e-14,68.322665 C2.21599994,68.1893316 3.84133324,67.9253316 4.88133321,67.526665 L4.88133321,67.526665 C5.92133319,67.130665 6.6266665,66.3679983 6.99599983,65.2439984 L6.99599983,65.2439984 C7.36399982,64.1173317 7.54933314,62.2986651 7.54933314,59.7826652 L7.54933314,59.7826652 L7.54933314,10.5266664 C7.54933314,8.00933313 7.36399982,6.18933318 6.99599983,5.06399987 L6.99599983,5.06399987 C6.6266665,3.93733323 5.92133319,3.17599992 4.88133321,2.77999993 L4.88133321,2.77999993 C3.84133324,2.38133327 2.21599994,2.11733328 -5.36556939e-14,1.98533328 L-5.36556939e-14,1.98533328 L-5.36556939e-14,0 C3.42266658,0.197333328 8.58933312,0.295999993 15.5013329,0.295999993 L15.5013329,0.295999993 C19.7293328,0.295999993 24.0586661,0.231999994 28.4853326,0.0986666642 L28.4853326,0.0986666642 C29.8279993,0.0306666659 31.4719992,0 33.4173325,0 L33.4173325,0 C42.1413323,0 48.9519988,1.67199996 53.8506653,5.01466654 L53.8506653,5.01466654 C58.7493319,8.35733312 61.1986651,13.109333 61.1986651,19.2653329 L61.1986651,19.2653329 C61.1986651,23.7653327 59.1519985,27.6719993 55.0586653,30.9813326 L55.0586653,30.9813326 C50.9653321,34.2919991 44.5559989,36.2786658 35.8333324,36.9413324 L35.8333324,36.9413324 L35.8333324,37.1399991 C42.4773323,38.331999 47.4933321,40.579999 50.8813321,43.8919989 L50.8813321,43.8919989 C54.269332,47.2026655 55.9653319,50.7773321 55.9653319,54.617332 L55.9653319,54.617332 C55.9653319,59.3186652 53.833332,63.0893318 49.5733321,65.938665 L49.5733321,65.938665 C45.3106655,68.7839983 39.1546657,70.2079982 31.1026659,70.2079982 L31.1026659,70.2079982 C29.3573326,70.2079982 27.8133326,70.1746649 26.4733327,70.1106649 L26.4733327,70.1106649 L15.2999996,70.0106649 C8.52133312,70.0106649 3.42266658,70.1106649 -5.36556939e-14,70.3079982 L-5.36556939e-14,70.3079982 L-5.36556939e-14,68.322665 Z M23.5533327,59.7826652 C23.5533327,62.1653318 23.7213327,63.9533317 24.0586661,65.142665 L24.0586661,65.142665 C24.3919994,66.3359983 24.978666,67.162665 25.818666,67.626665 L25.818666,67.626665 C26.6573327,68.0893316 27.982666,68.322665 29.7946659,68.322665 L29.7946659,68.322665 C33.2173325,68.322665 35.7159991,67.0959983 37.2933324,64.6479984 L37.2933324,64.6479984 C38.8693324,62.1986651 39.6586657,58.4906652 39.6586657,53.525332 L39.6586657,53.525332 C39.6586657,48.6253321 38.7853324,44.7026655 37.0413324,41.7573323 L37.0413324,41.7573323 C35.2959991,38.811999 32.2439992,37.3373324 27.882666,37.3373324 L27.882666,37.3373324 L23.5533327,37.3373324 L23.5533327,59.7826652 Z M26.0199993,2.93066659 C25.046666,3.35733325 24.3919994,4.1359999 24.0586661,5.26399987 L24.0586661,5.26399987 C23.7213327,6.38799984 23.5533327,8.14266646 23.5533327,10.5266664 L23.5533327,10.5266664 L23.5533327,35.6493324 L27.7799993,35.6493324 C33.5506658,35.6493324 37.7799991,34.2919991 40.463999,31.5786659 L40.463999,31.5786659 C43.1479989,28.8639993 44.4906656,24.8919994 44.4906656,19.6626662 L44.4906656,19.6626662 C44.4906656,8.0759998 39.8253323,2.28266661 30.4999992,2.28266661 L30.4999992,2.28266661 C28.4853326,2.28266661 26.9919993,2.4986666 26.0199993,2.93066659" id="path156"></path>
                        </g>
                    </g>
                </g>
                <g id="g158" transform="translate(85.961331, 114.053330)" fill="#fff" fill-rule="nonzero">
                    <g id="g166">
                        <path d="M32.8133325,70.0106649 C18.1839995,70.0106649 7.24666649,70.1106649 0,70.3079982 L0,70.3079982 L0,68.322665 C2.21333328,68.1893316 3.84133324,67.9253316 4.88133321,67.526665 L4.88133321,67.526665 C5.91999985,67.130665 6.6266665,66.3679983 6.99599983,65.2439984 L6.99599983,65.2439984 C7.36266648,64.1173317 7.54933314,62.2986651 7.54933314,59.7826652 L7.54933314,59.7826652 L7.54933314,10.5266664 C7.54933314,8.00933313 7.36266648,6.18933318 6.99599983,5.06399987 L6.99599983,5.06399987 C6.6266665,3.93733323 5.91999985,3.17599992 4.88133321,2.77999993 L4.88133321,2.77999993 C3.84133324,2.38133327 2.21333328,2.11733328 0,1.98533328 L0,1.98533328 L0,0 C7.24666649,0.197333328 18.1839995,0.295999993 32.8133325,0.295999993 L32.8133325,0.295999993 C43.6159989,0.295999993 51.2999987,0.197333328 55.8639986,0 L55.8639986,0 C55.3933319,3.9719999 55.1586653,9.00133311 55.1586653,15.0946663 L55.1586653,15.0946663 C55.1586653,18.4693329 55.2586653,21.2506661 55.4613319,23.4373327 L55.4613319,23.4373327 L53.145332,23.4373327 C51.937332,15.7546663 49.8746654,10.3106664 46.9546655,7.09999982 L46.9546655,7.09999982 C44.0359989,3.88666657 40.1933323,2.28266661 35.4293324,2.28266661 L35.4293324,2.28266661 L30.4973326,2.28266661 C28.418666,2.28266661 26.9079993,2.44666661 25.9693327,2.77999993 L25.9693327,2.77999993 C25.026666,3.11199992 24.3906661,3.75599991 24.0559994,4.71599988 L24.0559994,4.71599988 C23.7199994,5.67466652 23.5533327,7.21466649 23.5533327,9.33466643 L23.5533327,9.33466643 L23.5533327,34.3599991 L26.7733327,34.3599991 C33.5506658,34.3599991 37.6453324,29.9893326 39.0533324,21.2506661 L39.0533324,21.2506661 L41.3693323,21.2506661 C40.9666656,27.2733327 40.7653323,31.9746659 40.7653323,35.3519991 L40.7653323,35.3519991 L40.7653323,40.119999 C40.7653323,43.5599989 40.8653323,46.6733322 41.067999,49.4546654 L41.067999,49.4546654 L38.751999,49.4546654 C38.011999,45.8786655 36.7226657,42.7999989 34.8759991,40.2186657 L34.8759991,40.2186657 C33.0293325,37.6359991 30.3293326,36.3453324 26.7733327,36.3453324 L26.7733327,36.3453324 L23.5533327,36.3453324 L23.5533327,60.9733318 C23.5533327,63.0893318 23.7199994,64.6293317 24.0559994,65.590665 L24.0559994,65.590665 C24.3906661,66.5493317 25.026666,67.194665 25.9693327,67.526665 L25.9693327,67.526665 C26.9079993,67.8573316 28.418666,68.022665 30.4973326,68.022665 L30.4973326,68.022665 L34.6253325,68.022665 C39.3893323,68.022665 43.0799989,66.598665 45.6986655,63.7546651 L45.6986655,63.7546651 C48.3146655,60.9053318 50.1266654,55.9413319 51.1333321,48.8573321 L51.1333321,48.8573321 L53.4479987,48.8573321 C53.2466653,50.4466654 53.145332,52.697332 53.145332,55.6106653 L53.145332,55.6106653 C53.145332,59.9133318 53.3799987,64.8119984 53.849332,70.3079982 L53.849332,70.3079982 C49.6879988,70.1106649 42.6773323,70.0106649 32.8133325,70.0106649" id="path186"></path>
                    </g>
                </g>
                <g id="g188" transform="translate(163.463996, 114.053330)" fill="#fff" fill-rule="nonzero">
                    <g id="g196">
                        <path d="M35.1279991,70.4066649 C33.5186658,70.4066649 32.3439992,70.4399982 31.6066659,70.5066649 L31.6066659,70.5066649 L8.65733312,12.413333 C6.17333318,6.05599985 3.28666658,2.5826666 0,1.98533328 L0,1.98533328 L0,0 C2.01333328,0.197333328 4.56266655,0.295999993 7.65066648,0.295999993 L7.65066648,0.295999993 C11.4079997,0.295999993 15.5679996,0.197333328 20.1306662,0 L20.1306662,0 L20.1306662,1.98533328 C17.1773329,2.11733328 14.9479996,2.66399993 13.4386663,3.62399991 L13.4386663,3.62399991 C11.9279997,4.58266655 11.1733331,6.28799984 11.1733331,8.73866645 L11.1733331,8.73866645 C11.1733331,11.3213331 12.1119997,14.9946663 13.9906663,19.7613328 L13.9906663,19.7613328 L16.6079996,26.6133327 L38.551999,26.6133327 L44.5906656,10.3279997 C45.3959989,8.34266646 45.7999989,6.75199983 45.7999989,5.56133319 L45.7999989,5.56133319 C45.7999989,4.30133323 45.2613322,3.42666658 44.1879989,2.93066659 L44.1879989,2.93066659 C43.1133323,2.43199994 41.3013323,2.11733328 38.7533324,1.98533328 L38.7533324,1.98533328 L38.7533324,0 C42.1066656,0.197333328 47.2066655,0.295999993 54.053332,0.295999993 L54.053332,0.295999993 C60.2253318,0.295999993 65.3253317,0.197333328 69.3519983,0 L69.3519983,0 L69.3519983,1.98533328 C68.278665,2.05066662 67.1719983,2.5826666 66.030665,3.57466658 L66.030665,3.57466658 C64.8893317,4.56799989 63.8826651,6.15599985 63.0106651,8.34266646 L63.0106651,8.34266646 L38.551999,70.5066649 C37.8799991,70.4399982 36.7399991,70.4066649 35.1279991,70.4066649 M27.8813326,55.4119986 L37.8466657,28.5999993 L17.4133329,28.5999993 L27.8813326,55.4119986 Z" id="path216"></path>
                    </g>
                </g>
                <g id="g218" transform="translate(252.645327, 112.663997)" fill="#fff" fill-rule="nonzero">
                    <g id="g220" transform="translate(-0.000000, 0.000000)">
                        <g id="g226" transform="translate(-0.000000, 0.000000)">
                            <path d="M56.8693319,71.3999982 C52.173332,71.3999982 48.5493321,71.5 45.9986655,71.6973315 L45.9986655,71.6973315 L45.9986655,69.7119983 C48.8839988,69.3786649 50.9973321,68.7999983 52.3399987,67.9719983 L52.3399987,67.9719983 C53.6826653,67.1439983 54.5879986,65.8039984 55.0586653,63.9519984 L55.0586653,63.9519984 C55.5266653,62.0973318 55.7626653,59.2479985 55.7626653,55.4119986 L55.7626653,55.4119986 L55.7626653,29.1946659 C55.7626653,20.9853328 54.3866653,14.645333 51.637332,10.1786664 L51.637332,10.1786664 C48.8839988,5.70799986 44.1533322,3.47333325 37.4426657,3.47333325 L37.4426657,3.47333325 C32.2746659,3.47333325 28.6679993,5.11199987 26.622666,8.39066646 L26.622666,8.39066646 C24.5759994,11.6666664 23.5533327,16.7799996 23.5533327,23.7319994 L23.5533327,23.7319994 L23.5533327,61.1719985 C23.5533327,63.6879984 23.7546661,65.506665 24.1559994,66.6333317 L24.1559994,66.6333317 C24.5599994,67.7573316 25.314666,68.5199983 26.422666,68.9159983 L26.422666,68.9159983 C27.5279993,69.3146649 29.2906659,69.5786649 31.7053325,69.7119983 L31.7053325,69.7119983 L31.7053325,71.6973315 C28.014666,71.5 22.6799994,71.3999982 15.7013329,71.3999982 L15.7013329,71.3999982 C8.65599978,71.3999982 3.42133325,71.5 -5.38258382e-14,71.6973315 L-5.38258382e-14,71.6973315 L-5.38258382e-14,69.7119983 C2.21466661,69.5786649 3.8399999,69.3146649 4.88133321,68.9159983 L4.88133321,68.9159983 C5.92133319,68.5199983 6.62533317,67.7573316 6.99466649,66.6333317 L6.99466649,66.6333317 C7.36399982,65.506665 7.54799981,63.6879984 7.54799981,61.1719985 L7.54799981,61.1719985 L7.54799981,29.9893326 C7.54799981,23.2359994 8.08533313,17.9893329 9.15866644,14.249333 L9.15866644,14.249333 C10.2319997,10.5066664 12.3119997,7.41199981 15.3999996,4.96399988 L15.3999996,4.96399988 C19.6919995,1.65199996 25.7333327,0 33.5173325,0 L33.5173325,0 C38.4826657,0 42.6773323,0.809333313 46.0999988,2.43199994 L46.0999988,2.43199994 C49.5226654,4.05333323 52.1399987,6.31999984 53.9506653,9.2333331 L53.9506653,9.2333331 C56.7013319,13.8026663 58.0786652,20.8186661 58.0786652,30.2866659 L58.0786652,30.2866659 L58.0786652,56.6039986 C58.0786652,59.9786652 58.2613319,62.5266651 58.6319985,64.2506651 L58.6319985,64.2506651 C59,65.9693317 59.7039985,67.2279983 60.7439985,68.022665 L60.7439985,68.022665 C61.7839985,68.8173316 63.4119984,69.3786649 65.6279984,69.7119983 L65.6279984,69.7119983 L65.6279984,71.6973315 C63.5466651,71.5 60.6266652,71.3999982 56.8693319,71.3999982" id="path246"></path>
                        </g>
                    </g>
                </g>
                <g id="g248" transform="translate(341.219991, 114.053330)" fill="#fff" fill-rule="nonzero">
                    <g id="g250" transform="translate(-0.000000, 0.000000)">
                        <g id="g256" transform="translate(-0.000000, 0.000000)">
                            <path d="M31.1026659,70.0106649 C16.4733329,70.0106649 6.10666651,70.1106649 -5.36556939e-14,70.3079982 L-5.36556939e-14,70.3079982 C0.469333322,64.0173317 0.705333316,58.3906652 0.705333316,53.4266653 L0.705333316,53.4266653 C0.705333316,50.3146654 0.603999985,47.7973321 0.40399999,45.8786655 L0.40399999,45.8786655 L2.7186666,45.8786655 C3.8599999,51.4399987 5.23466654,55.8253319 6.84533316,59.0359985 L6.84533316,59.0359985 C8.45733312,62.2466651 10.3839997,64.5479984 12.633333,65.938665 L12.633333,65.938665 C14.881333,67.3279983 17.6159996,68.022665 20.8359995,68.022665 L20.8359995,68.022665 L23.0506661,68.022665 L23.0506661,11.3213331 C23.0506661,8.53999979 22.7653328,6.52133317 22.1959994,5.26399987 L22.1959994,5.26399987 C21.6253328,4.00533323 20.6186662,3.15999992 19.1759995,2.72933327 L19.1759995,2.72933327 C17.7333329,2.29866661 15.4346663,2.05066662 12.281333,1.98533328 L12.281333,1.98533328 L12.281333,0 C20.3333328,0.197333328 26.4733327,0.295999993 30.7013326,0.295999993 L30.7013326,0.295999993 C34.9946658,0.295999993 41.3706656,0.197333328 49.8253321,0 L49.8253321,0 L49.8253321,1.98533328 C46.6706655,2.05066662 44.3733322,2.29866661 42.9306656,2.72933327 L42.9306656,2.72933327 C41.4866656,3.15999992 40.4813323,4.00533323 39.9106657,5.26399987 L39.9106657,5.26399987 C39.339999,6.52133317 39.055999,8.53999979 39.055999,11.3213331 L39.055999,11.3213331 L39.055999,68.022665 L41.3706656,68.022665 C46.2026655,68.022665 50.0093321,66.3679983 52.7946653,63.0586651 L52.7946653,63.0586651 C55.5786653,59.7466652 57.7773319,54.0226653 59.3879985,45.8786655 L59.3879985,45.8786655 L61.7026651,45.8786655 C61.5013318,47.7973321 61.4013318,50.3146654 61.4013318,53.4266653 L61.4013318,53.4266653 C61.4013318,58.3906652 61.6346651,64.0173317 62.1066651,70.3079982 L62.1066651,70.3079982 C56.0666653,70.1106649 45.7319989,70.0106649 31.1026659,70.0106649" id="path276"></path>
                        </g>
                    </g>
                </g>
                <g id="g278" transform="translate(423.861323, 114.053330)" fill="#fff" fill-rule="nonzero">
                    <g id="g280" transform="translate(-0.000000, 0.000000)">
                        <g id="g286" transform="translate(-0.000000, 0.000000)">
                            <path d="M55.1559986,70.1106649 C51.3319987,70.1106649 47.1386655,70.2079982 42.5773323,70.4066649 L42.5773323,70.4066649 L42.5773323,68.4199983 C45.2599989,68.2879983 47.3226655,67.7253316 48.7679988,66.7333317 L48.7679988,66.7333317 C50.2079987,65.7413317 50.9293321,64.1173317 50.9293321,61.8666651 L50.9293321,61.8666651 C50.9293321,58.8893319 49.6213321,54.781332 47.0039988,49.5533321 L47.0039988,49.5533321 L39.1533324,34.0626658 L23.8546661,63.1573318 C23.3839994,64.0173317 23.1479994,64.746665 23.1479994,65.342665 L23.1479994,65.342665 C23.1479994,66.4679983 23.8373327,67.2453317 25.2133327,67.6759983 L25.2133327,67.6759983 C26.5879993,68.1053316 28.4493326,68.322665 30.7986659,68.322665 L30.7986659,68.322665 L30.7986659,70.4066649 C24.4239994,70.0746649 18.1173329,69.9106649 11.8759997,69.9106649 L11.8759997,69.9106649 C6.91066649,69.9106649 2.95066659,70.0746649 -5.36556939e-14,70.4066649 L-5.36556939e-14,70.4066649 L-5.36556939e-14,68.322665 C1.81066662,68.322665 3.75599991,66.4679983 5.83733319,62.7613318 L5.83733319,62.7613318 L25.262666,27.3093327 L25.262666,10.5266664 C25.262666,8.00933313 25.0773327,6.18933318 24.7093327,5.06399987 L24.7093327,5.06399987 C24.3399994,3.93733323 23.6346661,3.17599992 22.5959994,2.77999993 L22.5959994,2.77999993 C21.5546661,2.38133327 19.9293328,2.11733328 17.7133329,1.98533328 L17.7133329,1.98533328 L17.7133329,0 C20.9359995,0.197333328 26.134666,0.295999993 33.3146658,0.295999993 L33.3146658,0.295999993 C40.0253323,0.295999993 45.1919989,0.197333328 48.8173321,0 L48.8173321,0 L48.8173321,1.98533328 C46.5359988,2.11733328 44.8906655,2.38133327 43.8839989,2.77999993 L43.8839989,2.77999993 C42.8773323,3.17599992 42.1893323,3.93733323 41.819999,5.06399987 L41.819999,5.06399987 C41.4506656,6.18933318 41.267999,8.00933313 41.267999,10.5266664 L41.267999,10.5266664 L41.267999,33.6639992 L53.1439987,56.9026652 C56.4973319,63.3213318 59.7213318,67.162665 62.8066651,68.4199983 L62.8066651,68.4199983 L62.8066651,70.4066649 C60.7933318,70.2079982 58.2413319,70.1106649 55.1559986,70.1106649" id="path306"></path>
                        </g>
                    </g>
                </g>
                <g id="g308" transform="translate(550.081320, 114.053330)" fill="#fff" fill-rule="nonzero">
                    <g id="g310" transform="translate(-0.000000, 0.000000)">
                        <g id="g316" transform="translate(-0.000000, 0.000000)">
                            <path d="M56.4679986,70.0106649 C51.4346654,70.0106649 46.4666655,70.1106649 41.5693323,70.3079982 L41.5693323,70.3079982 L41.5693323,68.4199983 C43.9173322,68.2879983 45.7466655,67.758665 47.0573322,66.8333317 L47.0573322,66.8333317 C48.3653321,65.9039984 49.0173321,64.6479984 49.0173321,63.0586651 L49.0173321,63.0586651 C49.0173321,60.4106652 47.4733321,57.3293319 44.3879989,53.8226653 L44.3879989,53.8226653 L38.4493324,46.7719988 C35.6306658,43.5959989 33.1159992,41.275999 30.8999992,39.8226657 L30.8999992,39.8226657 C28.6866659,38.3653324 26.234666,37.5706657 23.5519994,37.4373324 L23.5519994,37.4373324 L23.5519994,59.7826652 C23.5519994,62.2986651 23.7373327,64.1173317 24.1066661,65.2439984 L24.1066661,65.2439984 C24.4746661,66.3679983 25.1639994,67.130665 26.170666,67.526665 L26.170666,67.526665 C27.1773327,67.9253316 28.8199993,68.1893316 31.1026659,68.322665 L31.1026659,68.322665 L31.1026659,70.3079982 C27.478666,70.1106649 22.4133328,70.0106649 15.9026663,70.0106649 L15.9026663,70.0106649 C8.71999978,70.0106649 3.42133325,70.1106649 -5.36556939e-14,70.3079982 L-5.36556939e-14,70.3079982 L-5.36556939e-14,68.322665 C2.21466661,68.1893316 3.8399999,67.9253316 4.88133321,67.526665 L4.88133321,67.526665 C5.92266652,67.130665 6.62399983,66.3679983 6.99466649,65.2439984 L6.99466649,65.2439984 C7.36266648,64.1173317 7.54799981,62.2986651 7.54799981,59.7826652 L7.54799981,59.7826652 L7.54799981,10.5266664 C7.54799981,8.00933313 7.36266648,6.18933318 6.99466649,5.06399987 L6.99466649,5.06399987 C6.62399983,3.93733323 5.92266652,3.17599992 4.88133321,2.77999993 L4.88133321,2.77999993 C3.8399999,2.38133327 2.21466661,2.11733328 -5.36556939e-14,1.98533328 L-5.36556939e-14,1.98533328 L-5.36556939e-14,0 C3.42133325,0.197333328 8.71999978,0.295999993 15.9026663,0.295999993 L15.9026663,0.295999993 C22.4133328,0.295999993 27.478666,0.197333328 31.1026659,0 L31.1026659,0 L31.1026659,1.98533328 C28.8199993,2.11733328 27.1773327,2.38133327 26.170666,2.77999993 L26.170666,2.77999993 C25.1639994,3.17599992 24.4746661,3.93733323 24.1066661,5.06399987 L24.1066661,5.06399987 C23.7373327,6.18933318 23.5519994,8.00933313 23.5519994,10.5266664 L23.5519994,10.5266664 L23.5519994,35.3519991 C25.0959994,35.2199991 26.3199993,34.7893325 27.226666,34.0626658 L27.226666,34.0626658 C28.1333326,33.3319992 29.2559993,31.9093325 30.5986659,29.7906659 L30.5986659,29.7906659 L45.1933322,6.45466651 C45.9306655,5.32666653 46.2999988,4.50133322 46.2999988,3.9719999 L46.2999988,3.9719999 C46.2999988,3.30933325 45.8813322,2.84533326 45.0439989,2.5826666 L45.0439989,2.5826666 C44.2039989,2.31733328 42.8453323,2.11733328 40.9666656,1.98533328 L40.9666656,1.98533328 L40.9666656,0 C45.0586655,0.197333328 49.3199988,0.295999993 53.749332,0.295999993 L53.749332,0.295999993 C59.5186652,0.295999993 64.754665,0.197333328 69.4519983,0 L69.4519983,0 L69.4519983,1.98533328 C67.7733316,2.6466666 66.3973317,3.43999991 65.3239984,4.37066656 L65.3239984,4.37066656 C64.2506651,5.29599987 63.2119984,6.52133317 62.2039984,8.04266647 L62.2039984,8.04266647 L38.7533324,44.0906656 L51.3346654,58.8893319 C55.6959986,63.9839984 60.5599985,67.162665 65.9293317,68.4199983 L65.9293317,68.4199983 L65.9293317,70.3079982 C63.5133317,70.1106649 60.3586652,70.0106649 56.4679986,70.0106649" id="path336"></path>
                        </g>
                    </g>
                </g>
                <g id="g338" transform="translate(640.570651, 114.053330)" fill="#fff" fill-rule="nonzero">
                    <g id="g346">
                        <path d="M15.9013329,70.0106649 C8.71999978,70.0106649 3.41999991,70.1106649 0,70.3079982 L0,70.3079982 L0,68.322665 C2.21333328,68.1893316 3.8399999,67.9253316 4.87999988,67.526665 L4.87999988,67.526665 C5.92133319,67.130665 6.6226665,66.3679983 6.99466649,65.2439984 L6.99466649,65.2439984 C7.36133315,64.1173317 7.54666648,62.2986651 7.54666648,59.7826652 L7.54666648,59.7826652 L7.54666648,10.5266664 C7.54666648,8.00933313 7.36133315,6.18933318 6.99466649,5.06399987 L6.99466649,5.06399987 C6.6226665,3.93733323 5.92133319,3.17599992 4.87999988,2.77999993 L4.87999988,2.77999993 C3.8399999,2.38133327 2.21333328,2.11733328 0,1.98533328 L0,1.98533328 L0,0 C3.41999991,0.197333328 8.71999978,0.295999993 15.9013329,0.295999993 L15.9013329,0.295999993 C22.4119994,0.295999993 27.478666,0.197333328 31.1026659,0 L31.1026659,0 L31.1026659,1.98533328 C28.8199993,2.11733328 27.1773327,2.38133327 26.170666,2.77999993 L26.170666,2.77999993 C25.162666,3.17599992 24.4733327,3.93733323 24.1066661,5.06399987 L24.1066661,5.06399987 C23.7359994,6.18933318 23.5519994,8.00933313 23.5519994,10.5266664 L23.5519994,10.5266664 L23.5519994,59.7826652 C23.5519994,62.2986651 23.7359994,64.1173317 24.1066661,65.2439984 L24.1066661,65.2439984 C24.4733327,66.3679983 25.162666,67.130665 26.170666,67.526665 L26.170666,67.526665 C27.1773327,67.9253316 28.8199993,68.1893316 31.1026659,68.322665 L31.1026659,68.322665 L31.1026659,70.3079982 C27.478666,70.1106649 22.4119994,70.0106649 15.9013329,70.0106649" id="path366"></path>
                    </g>
                </g>
                <g id="g368" transform="translate(697.137316, 113.854664)" fill="#fff" fill-rule="nonzero">
                    <g id="g376">
                        <path d="M57.4733319,70.2093316 C52.8439987,70.2093316 49.2186654,70.3093316 46.6039988,70.5066649 L46.6039988,70.5066649 L46.6039988,68.5213316 C49.6226654,68.1879983 51.8026654,67.6093316 53.1466653,66.7813317 L53.1466653,66.7813317 C54.4866653,65.9533317 55.3599986,64.6306651 55.7626653,62.8093318 L55.7626653,62.8093318 C56.1666653,60.9879985 56.3666653,58.1266652 56.3666653,54.221332 L56.3666653,54.221332 L56.3666653,23.1373328 L17.4133329,70.5066649 C14.997333,70.3093316 12.1119997,70.2093316 8.75733311,70.2093316 L8.75733311,70.2093316 C5.06533321,70.2093316 2.14666661,70.3093316 0,70.5066649 L0,70.5066649 L0,68.5213316 C2.21466661,68.3879983 3.8399999,68.1239983 4.88133321,67.7253316 L4.88133321,67.7253316 C5.92133319,67.3293317 6.62399983,66.566665 6.99466649,65.442665 L6.99466649,65.442665 C7.36399982,64.3159984 7.54799981,62.4973318 7.54799981,59.9813318 L7.54799981,59.9813318 L7.54799981,15.293333 C7.54799981,11.9159997 7.36399982,9.36666643 6.99466649,7.64666648 L6.99466649,7.64666648 C6.62399983,5.92399985 5.92133319,4.66799988 4.88133321,3.87333324 L4.88133321,3.87333324 C3.8399999,3.07866659 2.21466661,2.51599994 0,2.18399995 L0,2.18399995 L0,0.198666662 C2.14666661,0.39599999 5.06533321,0.494666654 8.75733311,0.494666654 L8.75733311,0.494666654 C13.385333,0.494666654 17.0093329,0.39599999 19.6279995,0.198666662 L19.6279995,0.198666662 L19.6279995,2.18399995 C16.6079996,2.51599994 14.4266663,3.09333326 13.0839997,3.92133324 L13.0839997,3.92133324 C11.7426664,4.75066655 10.8706664,6.07199985 10.4666664,7.8959998 L10.4666664,7.8959998 C10.0653331,9.71466642 9.86399975,12.577333 9.86399975,16.4839996 L9.86399975,16.4839996 L9.86399975,54.617332 L53.5479987,0 L56.2666653,0.0986666642 L58.6813319,0 L58.6813319,55.4133319 C58.6813319,58.7879985 58.8653319,61.3359985 59.2346652,63.0599984 L59.2346652,63.0599984 C59.6039985,64.778665 60.3079985,66.0373317 61.3506651,66.8319983 L61.3506651,66.8319983 C62.3879984,67.626665 64.0173317,68.1879983 66.230665,68.5213316 L66.230665,68.5213316 L66.230665,70.5066649 C64.1493317,70.3093316 61.2306651,70.2093316 57.4733319,70.2093316" id="path396"></path>
                    </g>
                </g>
                <g id="g398" transform="translate(788.529314, 112.663997)" fill="#fff" fill-rule="nonzero">
                    <g id="g406">
                        <path d="M17.6173329,68.4199983 C12.1119997,65.3079984 7.80133314,60.9386651 4.68266655,55.3106653 L4.68266655,55.3106653 C1.56266663,49.6839988 0,43.1639989 0,35.7493324 L0,35.7493324 C0,24.4279994 3.08799992,15.6386663 9.26266644,9.38399977 L9.26266644,9.38399977 C15.4346663,3.12533326 24.3239994,0 35.9373324,0 L35.9373324,0 C41.1013323,0 46.6066655,1.65199996 52.4439987,4.96399988 L52.4439987,4.96399988 C54.9239986,6.35333317 56.7359986,7.04933316 57.8773319,7.04933316 L57.8773319,7.04933316 C58.7506652,7.04933316 59.4373318,6.45333317 59.9413318,5.2613332 L59.9413318,5.2613332 C60.4439985,4.07066656 60.7306651,2.77733326 60.7973318,1.3893333 L60.7973318,1.3893333 L62.8093318,1.3893333 L62.8093318,21.0519995 C62.8093318,23.5679994 62.9279984,25.386666 63.1626651,26.5119993 L63.1626651,26.5119993 C63.3973317,27.638666 63.8159984,28.398666 64.4213317,28.7973326 L64.4213317,28.7973326 C65.026665,29.1946659 65.998665,29.4573326 67.3399983,29.5933326 L67.3399983,29.5933326 L67.3399983,31.5786659 C64.3199984,31.3786659 59.8239985,31.2786659 53.8519987,31.2786659 L53.8519987,31.2786659 C46.5373322,31.2786659 40.8013323,31.3786659 36.6399991,31.5786659 L36.6399991,31.5786659 L36.6399991,29.5933326 C39.591999,29.4573326 41.7573323,29.1266659 43.1333323,28.598666 L43.1333323,28.598666 C44.5079989,28.0693326 45.4626655,27.0919993 46.0013322,25.6693327 L46.0013322,25.6693327 C46.5373322,24.2439994 46.8066655,21.9773328 46.8066655,18.8666662 L46.8066655,18.8666662 L46.8066655,9.13466644 C46.8066655,7.8759998 46.6213322,6.85199983 46.2533322,6.05599985 L46.2533322,6.05599985 C45.8839989,5.2613332 45.2626655,4.56533322 44.3893322,3.9719999 L44.3893322,3.9719999 C42.5773323,2.64533327 40.195999,1.98533328 37.2439991,1.98533328 L37.2439991,1.98533328 C24.3599994,1.98533328 17.9173329,13.437333 17.9173329,36.3453324 L17.9173329,36.3453324 C17.9173329,42.5013323 18.6559995,48.1613321 20.1319995,53.325332 L20.1319995,53.325332 C21.6093328,58.4906652 23.9079994,62.6426651 27.0279993,65.7879984 L27.0279993,65.7879984 C30.1479992,68.9319983 34.0559991,70.5053316 38.7546657,70.5053316 L38.7546657,70.5053316 C41.235999,70.5053316 43.6506656,70.0746649 46.0013322,69.2146649 L46.0013322,69.2146649 C48.3493321,68.3533316 50.3293321,67.162665 51.9399987,65.6399984 L51.9399987,65.6399984 C54.357332,63.7186651 56.0826653,61.3706651 57.1239986,58.5893319 L57.1239986,58.5893319 C58.1626652,55.8079986 58.9506652,52.1666654 59.4893318,47.6653321 L59.4893318,47.6653321 L61.8026651,47.6653321 C61.8026651,59.1866652 61.9386651,67.194665 62.2079984,71.6973315 L62.2079984,71.6973315 L59.8919985,71.6973315 C59.6893318,69.6439983 59.3879985,68.1373316 58.9853319,67.178665 L58.9853319,67.178665 C58.5839985,66.218665 58.0439985,65.7399984 57.3759986,65.7399984 L57.3759986,65.7399984 C56.8373319,65.7399984 56.1693319,66.0373317 55.3626653,66.6333317 L55.3626653,66.6333317 C52.6106654,68.6839983 49.8093321,70.2733316 46.9573322,71.3999982 L46.9573322,71.3999982 C44.1039989,72.5239982 40.5986657,73.0866648 36.4386658,73.0866648 L36.4386658,73.0866648 C29.3933326,73.0866648 23.1173328,71.5319982 17.6173329,68.4199983" id="path426"></path>
                    </g>
                </g>
                <g id="g428" transform="translate(880.227978, 114.053330)" fill="#fff" fill-rule="nonzero">
                    <g id="g436">
                        <path d="M19.3253329,70.1106649 L15.297333,70.0106649 L12.177333,70.0106649 C6.87599983,70.0106649 2.81599993,70.1106649 0,70.3079982 L0,70.3079982 L0,68.322665 C2.21466661,68.1893316 3.8399999,67.9253316 4.87999988,67.526665 L4.87999988,67.526665 C5.92133319,67.130665 6.62399983,66.3679983 6.99333316,65.2439984 L6.99333316,65.2439984 C7.36133315,64.1173317 7.54666648,62.2986651 7.54666648,59.7826652 L7.54666648,59.7826652 L7.54666648,10.5266664 C7.54666648,8.00933313 7.36133315,6.18933318 6.99333316,5.06399987 L6.99333316,5.06399987 C6.62399983,3.93733323 5.92133319,3.17599992 4.87999988,2.77999993 L4.87999988,2.77999993 C3.8399999,2.38133327 2.21466661,2.11733328 0,1.98533328 L0,1.98533328 L0,0 C3.42133325,0.197333328 8.58799979,0.295999993 15.5,0.295999993 L15.5,0.295999993 C17.2439996,0.295999993 20.0626662,0.231999994 23.9546661,0.0986666642 L23.9546661,0.0986666642 L30.1959992,0 C38.5146657,0 45.6799989,1.49066663 51.685332,4.46933322 L51.685332,4.46933322 C57.6893319,7.44799981 62.2879984,11.6346664 65.4759984,17.0306662 L65.4759984,17.0306662 C68.6613316,22.4239994 70.2559982,28.7333326 70.2559982,35.9479991 L70.2559982,35.9479991 C70.2559982,47.1346655 67.002665,55.6613319 60.4933318,61.5186651 L60.4933318,61.5186651 C53.9839987,67.378665 44.1866656,70.3079982 31.1026659,70.3079982 L31.1026659,70.3079982 C28.7519993,70.3079982 24.8253327,70.2413316 19.3253329,70.1106649 M26.3199993,2.4826666 C25.278666,2.94533326 24.5586661,3.77333324 24.1546661,4.96399988 L24.1546661,4.96399988 C23.7533327,6.15599985 23.5519994,7.9439998 23.5519994,10.3279997 L23.5519994,10.3279997 L23.5519994,59.9813318 C23.5519994,62.3626651 23.7533327,64.1506651 24.1546661,65.342665 L24.1546661,65.342665 C24.5586661,66.534665 25.278666,67.3613316 26.3199993,67.8253316 L26.3199993,67.8253316 C27.3599993,68.288 28.9199993,68.5213316 31.0026659,68.5213316 L31.0026659,68.5213316 C38.9853324,68.5213316 44.7399989,65.854665 48.2639988,60.5266652 L48.2639988,60.5266652 C51.7866654,55.1959986 53.5479987,46.8719988 53.5479987,35.5493324 L53.5479987,35.5493324 C53.5479987,24.2293327 51.8359987,15.7719996 48.4146655,10.1786664 L48.4146655,10.1786664 C44.9919989,4.58266655 39.2213324,1.78799996 31.1026659,1.78799996 L31.1026659,1.78799996 C28.9519993,1.78799996 27.3599993,2.01999995 26.3199993,2.4826666" id="path456"></path>
                    </g>
                </g>
                <g id="g458" transform="translate(977.862642, 112.663997)" fill="#fff" fill-rule="nonzero">
                    <g id="g460" transform="translate(-0.000000, 0.000000)">
                        <g id="g466" transform="translate(-0.000000, 0.000000)">
                            <path d="M17.1626662,68.4199983 C11.761333,65.3079984 7.54933314,60.9386651 4.52933322,55.3106653 L4.52933322,55.3106653 C1.51066663,49.6839988 -5.38258382e-14,43.2279989 -5.38258382e-14,35.9466658 L-5.38258382e-14,35.9466658 C-5.38258382e-14,28.4653326 1.47599996,22.0279994 4.42933322,16.6319996 L4.42933322,16.6319996 C7.38266648,11.2359997 11.525333,7.11466649 16.8599996,4.26933323 L16.8599996,4.26933323 C22.1946661,1.41999996 28.418666,0 35.5319991,0 L35.5319991,0 C42.4426656,0 48.6013321,1.55333329 54.0026653,4.66533322 L54.0026653,4.66533322 C59.4026652,7.77733314 63.6146651,12.1466664 66.6333317,17.7746662 L66.6333317,17.7746662 C69.6533316,23.4013327 71.1639982,29.8559993 71.1639982,37.1386657 L71.1639982,37.1386657 C71.1639982,44.6199989 69.6866649,51.0559987 66.734665,56.4533319 L66.734665,56.4533319 C63.7813317,61.8493318 59.6399985,65.9693317 54.3026653,68.8173316 L54.3026653,68.8173316 C48.9706654,71.6639982 42.7439989,73.0866648 35.6306658,73.0866648 L35.6306658,73.0866648 C28.7213326,73.0866648 22.5626661,71.5319982 17.1626662,68.4199983 M26.2213327,6.05599985 C23.3026661,8.90266644 20.9879995,12.941333 19.2759995,18.1719995 L19.2759995,18.1719995 C17.5639996,23.4013327 16.7093329,29.4573326 16.7093329,36.3453324 L16.7093329,36.3453324 C16.7093329,43.1639989 17.4639996,49.2199988 18.9746662,54.5186653 L18.9746662,54.5186653 C20.4839995,59.8133318 22.6479994,63.9333317 25.466666,66.8799983 L25.466666,66.8799983 C28.2853326,69.8253316 31.5386659,71.2999982 35.2306658,71.2999982 L35.2306658,71.2999982 C38.7866657,71.2999982 42.0239989,69.8759983 44.9426655,67.0293317 L44.9426655,67.0293317 C47.8613321,64.1813317 50.1773321,60.1426652 51.889332,54.9146653 L51.889332,54.9146653 C53.5986653,49.6839988 54.4559986,43.6266656 54.4559986,36.7413324 L54.4559986,36.7413324 C54.4559986,29.9213326 53.6986653,23.8639994 52.1906654,18.5679995 L52.1906654,18.5679995 C50.6786654,13.2706663 48.5173321,9.1493331 45.6986655,6.20666651 L45.6986655,6.20666651 C42.8799989,3.25866659 39.623999,1.78533329 35.9346658,1.78533329 L35.9346658,1.78533329 C32.3773325,1.78533329 29.1399993,3.20799992 26.2213327,6.05599985" id="path486"></path>
                        </g>
                    </g>
                </g>
                <g id="g488" transform="translate(1074.694640, 113.953330)" fill="#fff" fill-rule="nonzero">
                    <g id="g490" transform="translate(0.000000, 0.000000)">
                        <g id="g496" transform="translate(-0.000000, 0.000000)">
                            <path d="M70.6599982,70.1106649 L63.5133317,70.1106649 L44.9919989,22.0453328 L24.6586661,70.4079982 C20.2319995,70.2106649 14.9279996,70.1106649 8.75733311,70.1106649 L8.75733311,70.1106649 C5.06399987,70.1106649 2.14666661,70.2106649 -5.36679404e-14,70.4079982 L-5.36679404e-14,70.4079982 L-5.36679404e-14,68.422665 C2.21466661,68.2893316 3.8399999,68.0253316 4.88133321,67.626665 L4.88133321,67.626665 C5.92133319,67.230665 6.62399983,66.4679983 6.99466649,65.3439984 L6.99466649,65.3439984 C7.36399982,64.2173317 7.54666648,62.3986651 7.54666648,59.8826652 L7.54666648,59.8826652 L7.54666648,15.1946663 C7.54666648,11.817333 7.36399982,9.26799977 6.99466649,7.54799981 L6.99466649,7.54799981 C6.62399983,5.82533319 5.92133319,4.56933322 4.88133321,3.77466657 L4.88133321,3.77466657 C3.8399999,2.97999993 2.21466661,2.41733327 -5.36679404e-14,2.08533328 L-5.36679404e-14,2.08533328 L-5.36679404e-14,0.0999999975 C2.14666661,0.297333326 5.06399987,0.39599999 8.75733311,0.39599999 L8.75733311,0.39599999 C13.385333,0.39599999 17.0093329,0.297333326 19.6279995,0.0999999975 L19.6279995,0.0999999975 L19.6279995,2.08533328 C16.6079996,2.41733327 14.425333,2.99466659 13.0839997,3.82266657 L13.0839997,3.82266657 C11.7426664,4.65199988 10.8706664,5.97333318 10.4666664,7.79733314 L10.4666664,7.79733314 C10.0653331,9.61599976 9.86399975,12.4786664 9.86399975,16.3853329 L9.86399975,16.3853329 L9.86399975,63.9533317 L37.0413324,0 L38.651999,0 L62.9093318,62.5626651 L62.9093318,10.6266664 C62.9093318,8.10933313 62.7066651,6.28933318 62.3053318,5.16399987 L62.3053318,5.16399987 C61.9039985,4.03733323 61.1466651,3.27599992 60.0399985,2.87999993 L60.0399985,2.87999993 C58.9333319,2.48133327 57.1719986,2.21733328 54.7546653,2.08533328 L54.7546653,2.08533328 L54.7546653,0.0999999975 C58.1786652,0.297333326 63.4786651,0.39599999 70.6599982,0.39599999 L70.6599982,0.39599999 C77.5053314,0.39599999 82.7719979,0.297333326 86.4626645,0.0999999975 L86.4626645,0.0999999975 L86.4626645,2.08533328 C84.2493312,2.21733328 82.6199979,2.48133327 81.579998,2.87999993 L81.579998,2.87999993 C80.5386647,3.27599992 79.8346647,4.03733323 79.4666647,5.16399987 L79.4666647,5.16399987 C79.0973314,6.28933318 78.911998,8.10933313 78.911998,10.6266664 L78.911998,10.6266664 L78.911998,59.8826652 C78.911998,62.3986651 79.0973314,64.2173317 79.4666647,65.3439984 L79.4666647,65.3439984 C79.8346647,66.4679983 80.523998,67.230665 81.5306646,67.626665 L81.5306646,67.626665 C82.5373313,68.0253316 84.1799979,68.2893316 86.4626645,68.422665 L86.4626645,68.422665 L86.4626645,70.4079982 C82.7719979,70.2106649 77.5053314,70.1106649 70.6599982,70.1106649" id="path516"></path>
                        </g>
                    </g>
                </g>
                <g id="g518" transform="translate(364.674658, 0.840000)" fill="#fff" fill-rule="nonzero">
                    <g id="g526">
                        <path d="M24.9053327,49.3453321 L6.92933316,6.61999983 C6.41333317,5.3813332 5.94399985,4.47199989 5.52266653,3.8879999 L5.52266653,3.8879999 C5.10133321,3.30266658 4.44266656,2.87199993 3.55199991,2.59199994 L3.55199991,2.59199994 L0,1.50666663 L0.174666662,0 C2.7786666,0.0706666649 5.13599987,0.106666664 7.24666649,0.106666664 L7.24666649,0.106666664 C9.3573331,0.106666664 12.0759997,0.0706666649 15.4079996,0 L15.4079996,0 L15.3373329,1.57733329 L12.065333,2.52133327 C11.6199997,2.6626666 11.2853331,2.8306666 11.0639997,3.03066659 L11.0639997,3.03066659 C10.8399997,3.22799992 10.7293331,3.52666658 10.7293331,3.92266657 L10.7293331,3.92266657 C10.7293331,4.36666656 10.8693331,4.97466654 11.1506664,5.74399986 L11.1506664,5.74399986 C11.4319997,6.5146665 11.8199997,7.55333314 12.3119997,8.86133311 L12.3119997,8.86133311 L16.0053329,18.2106662 L32.9613325,18.2106662 L36.2679991,8.82533311 C36.7133324,7.56533314 37.0586657,6.5546665 37.3066657,5.79599986 L37.3066657,5.79599986 C37.5519991,5.03866654 37.6746657,4.42533322 37.6746657,3.95866657 L37.6746657,3.95866657 C37.6746657,3.53866658 37.5746657,3.22799992 37.3759991,3.03066659 L37.3759991,3.03066659 C37.1773324,2.8306666 36.8426657,2.6506666 36.3746658,2.4866666 L36.3746658,2.4866666 L33.0319992,1.50666663 L33.1719992,0 C36.8066657,0.0706666649 39.9626657,0.106666664 42.6359989,0.106666664 L42.6359989,0.106666664 C45.2626655,0.106666664 48.1106655,0.0706666649 51.1839987,0 L51.1839987,0 L51.1133321,1.50666663 L47.8066655,2.4866666 C46.9146655,2.7666666 46.2293322,3.19199992 45.7479989,3.76666657 L45.7479989,3.76666657 C45.2679989,4.33733322 44.7346655,5.42799986 44.1479989,7.03999982 L44.1479989,7.03999982 L28.5279993,49.8706654 L24.9053327,49.3453321 Z M24.9399994,40.6946656 L31.8013325,21.3986661 L17.3066662,21.3986661 L24.9399994,40.6946656 Z" id="path546"></path>
                    </g>
                </g>
                <g id="g548" transform="translate(424.182656, 0.665333)" fill="#fff" fill-rule="nonzero">
                    <g id="g550" transform="translate(-0.000000, 0.000000)">
                        <g id="g556" transform="translate(-0.000000, 0.000000)">
                            <path d="M37.0773324,49.2399988 L24.0266661,10.4013331 L14.493333,40.483999 C14.117333,41.7213323 13.8186663,42.7199989 13.5959997,43.4799989 L13.5959997,43.4799989 C13.3719997,44.2373322 13.261333,44.8493322 13.261333,45.3186655 L13.261333,45.3186655 C13.261333,45.7613322 13.3679997,46.0999988 13.577333,46.3333322 L13.577333,46.3333322 C13.789333,46.5666655 14.1399996,46.7426655 14.633333,46.8586655 L14.633333,46.8586655 L17.9399996,47.8039988 L17.7986662,49.3106654 C14.2106663,49.2173321 10.9973331,49.1706654 8.16133313,49.1706654 L8.16133313,49.1706654 C5.01866654,49.1706654 2.29733328,49.2173321 -6.75417187e-14,49.3106654 L-6.75417187e-14,49.3106654 L0.0693333316,47.8039988 L3.27066658,46.8239988 C4.13866656,46.5666655 4.81333321,46.1413322 5.29466653,45.5453322 L5.29466653,45.5453322 C5.77466652,44.9493322 6.20133318,44.1039989 6.57733317,43.0066656 L6.57733317,43.0066656 L20.6493328,0 L24.2013327,0.281333326 L37.1119991,37.2986657 L49.4599988,0 L53.0119987,0.281333326 L68.2799983,43.3919989 C68.6786649,44.4893322 69.0839983,45.2586655 69.4933316,45.7026655 L69.4933316,45.7026655 C69.9026649,46.1466655 70.4613316,46.4733322 71.1639982,46.6839988 L71.1639982,46.6839988 L74.7173315,47.8039988 L74.5773315,49.3106654 C72.1839982,49.2173321 69.7226649,49.1706654 67.1893317,49.1706654 L67.1893317,49.1706654 C64.5866651,49.1706654 62.0186651,49.2173321 59.4866652,49.3106654 L59.4866652,49.3106654 L59.5559985,47.6999988 L62.8626651,46.8239988 C63.3306651,46.7066655 63.6719984,46.5546655 63.8826651,46.3679988 L63.8826651,46.3679988 C64.0946651,46.1813322 64.1999984,45.8786655 64.1999984,45.4586655 L64.1999984,45.4586655 C64.1999984,45.0373322 64.0813317,44.4293322 63.8479984,43.6373322 L63.8479984,43.6373322 C63.6133317,42.8426656 63.2839984,41.779999 62.8626651,40.4493323 L62.8626651,40.4493323 L52.9426653,10.0506664 L40.2426657,49.4853321 L37.0773324,49.2399988 Z" id="path576"></path>
                        </g>
                    </g>
                </g>
                <g id="g578" transform="translate(504.621321, 0.840000)" fill="#fff" fill-rule="nonzero">
                    <g id="g580" transform="translate(0.000000, 0.000000)">
                        <g id="g586" transform="translate(-0.000000, 0.000000)">
                            <path d="M24.9053327,49.3453321 L6.92933316,6.61999983 C6.41333317,5.3813332 5.94399985,4.47199989 5.5213332,3.8879999 L5.5213332,3.8879999 C5.09999987,3.30266658 4.44266656,2.87199993 3.55199991,2.59199994 L3.55199991,2.59199994 L-6.75203282e-14,1.50666663 L0.174666662,0 C2.7786666,0.0706666649 5.13599987,0.106666664 7.24533315,0.106666664 L7.24533315,0.106666664 C9.35599977,0.106666664 12.0759997,0.0706666649 15.4079996,0 L15.4079996,0 L15.3359996,1.57733329 L12.065333,2.52133327 C11.6186664,2.6626666 11.2853331,2.8306666 11.0626664,3.03066659 L11.0626664,3.03066659 C10.8386664,3.22799992 10.7279997,3.52666658 10.7279997,3.92266657 L10.7279997,3.92266657 C10.7279997,4.36666656 10.8693331,4.97466654 11.1506664,5.74399986 L11.1506664,5.74399986 C11.4319997,6.5146665 11.8186664,7.55333314 12.3119997,8.86133311 L12.3119997,8.86133311 L16.0053329,18.2106662 L32.9613325,18.2106662 L36.2679991,8.82533311 C36.7133324,7.56533314 37.0586657,6.5546665 37.3053324,5.79599986 L37.3053324,5.79599986 C37.5506657,5.03866654 37.6746657,4.42533322 37.6746657,3.95866657 L37.6746657,3.95866657 C37.6746657,3.53866658 37.5733324,3.22799992 37.3759991,3.03066659 L37.3759991,3.03066659 C37.1759991,2.8306666 36.8413324,2.6506666 36.3733324,2.4866666 L36.3733324,2.4866666 L33.0319992,1.50666663 L33.1719992,0 C36.8066657,0.0706666649 39.959999,0.106666664 42.6359989,0.106666664 L42.6359989,0.106666664 C45.2613322,0.106666664 48.1093321,0.0706666649 51.1826654,0 L51.1826654,0 L51.1119987,1.50666663 L47.8066655,2.4866666 C46.9146655,2.7666666 46.2279988,3.19199992 45.7479989,3.76666657 L45.7479989,3.76666657 C45.2666655,4.33733322 44.7333322,5.42799986 44.1479989,7.03999982 L44.1479989,7.03999982 L28.5279993,49.8706654 L24.9053327,49.3453321 Z M24.9399994,40.6946656 L31.7999992,21.3986661 L17.3066662,21.3986661 L24.9399994,40.6946656 Z" id="path606"></path>
                        </g>
                    </g>
                </g>
                <g id="g608" transform="translate(573.063986, 0.385333)" fill="#fff" fill-rule="nonzero">
                    <g id="g616">
                        <path d="M17.4333329,49.7293321 C16.5786663,49.7066654 15.5119996,49.6719988 14.2346663,49.6253321 L14.2346663,49.6253321 C12.9786663,49.5786654 11.9106664,49.5373321 11.0346664,49.5026654 L11.0346664,49.5026654 C10.1573331,49.4679988 9.43466643,49.4506654 8.86533311,49.4506654 L8.86533311,49.4506654 C5.97999985,49.4506654 3.02399992,49.4973321 0,49.5906654 L0,49.5906654 L0.0693333316,48.0839988 L4.43199989,46.7186655 C4.97066654,46.5319988 5.25199987,46.1346655 5.27466653,45.5266655 L5.27466653,45.5266655 C5.29866653,44.7573322 5.31599987,43.8933322 5.3293332,42.9359989 L5.3293332,42.9359989 C5.3413332,41.9773323 5.34666653,40.9053323 5.34666653,39.7146657 L5.34666653,39.7146657 L5.34666653,11.3119997 C5.34666653,9.90933309 5.3413332,8.63333312 5.3293332,7.47599981 L5.3293332,7.47599981 C5.31599987,6.32133318 5.29866653,5.2773332 5.27466653,4.34266656 L5.27466653,4.34266656 C5.22799987,3.78133324 4.91333321,3.41866658 4.32533323,3.25733325 L4.32533323,3.25733325 L0,1.96133328 L0.139999997,0.454666655 C3.11733326,0.52533332 6.02533318,0.561333319 8.86399978,0.561333319 L8.86399978,0.561333319 C11.6546664,0.561333319 14.4439996,0.52533332 17.2373329,0.454666655 L17.2373329,0.454666655 L17.1306662,1.96133328 L13.2266663,3.11733326 C12.6399997,3.30399992 12.333333,3.75733324 12.3119997,4.48266655 L12.3119997,4.48266655 C12.2866664,5.3933332 12.2706664,6.40933317 12.2586664,7.52933315 L12.2586664,7.52933315 C12.2466664,8.65066645 12.2399997,9.90933309 12.2399997,11.3119997 L12.2399997,11.3119997 L12.2399997,23.4639994 L14.701333,23.3933327 C15.317333,23.3706661 15.8226663,23.3253328 16.2173329,23.2546661 L16.2173329,23.2546661 C16.6093329,23.1839994 16.9533329,23.0546661 17.2506662,22.8693328 L17.2506662,22.8693328 C17.5479996,22.6813328 17.8213329,22.4253328 18.0706662,22.0986661 L18.0706662,22.0986661 C18.3213329,21.7706661 18.6239995,21.3279995 18.9813329,20.7679995 L18.9813329,20.7679995 C20.1933328,18.8986662 21.3453328,16.9906662 22.4399994,15.0426663 L22.4399994,15.0426663 C23.5333327,13.0906663 24.5853327,11.2533331 25.5959994,9.5253331 L25.5959994,9.5253331 C26.606666,7.79733314 27.582666,6.25066651 28.5199993,4.88533321 L28.5199993,4.88533321 C29.4586659,3.51999991 30.4146659,2.4746666 31.3893325,1.74933329 L31.3893325,1.74933329 C31.8413325,1.4013333 32.2986659,1.11466664 32.7626658,0.893333311 L32.7626658,0.893333311 C33.2279992,0.67066665 33.7439992,0.490666654 34.3146658,0.350666658 L34.3146658,0.350666658 C34.8853325,0.210666661 35.5346658,0.11733333 36.2639991,0.0693333316 L36.2639991,0.0693333316 C36.9933324,0.0226666661 37.8386657,0 38.8013324,0 L38.8013324,0 C39.9493323,0 41.367999,0.105333331 43.0573323,0.315999992 L43.0573323,0.315999992 L42.9519989,1.85599995 C42.3653323,1.99599995 41.831999,2.13466661 41.3506656,2.27733328 L41.3506656,2.27733328 C40.8706656,2.41733327 40.411999,2.5786666 39.9786657,2.7666666 L39.9786657,2.7666666 C39.5453323,2.95333326 39.127999,3.19066659 38.7293324,3.48533325 L38.7293324,3.48533325 C38.331999,3.77733324 37.9333324,4.1199999 37.5346657,4.51733322 L37.5346657,4.51733322 C36.7599991,5.28799987 35.9226658,6.33866651 35.0226658,7.66933314 L35.0226658,7.66933314 C34.1213325,9 33.1319992,10.5346664 32.0506659,12.2746664 L32.0506659,12.2746664 C30.9679992,14.013333 29.7973326,15.9293329 28.5373326,18.0186662 L28.5373326,18.0186662 C27.2773327,20.1079995 25.898666,22.2733328 24.4013327,24.5146661 L24.4013327,24.5146661 C28.2053326,25.682666 31.0333326,27.3453326 32.8866658,29.5066659 L32.8866658,29.5066659 C34.7439991,31.6653325 35.6693324,34.4839991 35.6693324,37.9626657 L35.6693324,37.9626657 C35.6693324,41.815999 34.3186658,44.7453322 31.6159992,46.7533322 L31.6159992,46.7533322 C28.9146659,48.7613321 24.862666,49.7653321 19.4586662,49.7653321 L19.4586662,49.7653321 C18.9613329,49.7653321 18.2853329,49.7519988 17.4333329,49.7293321 M12.2399997,26.0893327 L12.2399997,46.5786655 C13.109333,46.6719988 13.917333,46.7413322 14.669333,46.7879988 L14.669333,46.7879988 C15.4186663,46.8346655 16.1213329,46.8586655 16.7799996,46.8586655 L16.7799996,46.8586655 C20.6239995,46.8586655 23.4519994,46.0413322 25.2573327,44.4066656 L25.2573327,44.4066656 C27.062666,42.7719989 27.9653326,40.1813323 27.9653326,36.6319991 L27.9653326,36.6319991 C27.9653326,32.9666658 27.0213327,30.2759992 25.134666,28.5599993 L25.134666,28.5599993 C23.2453328,26.8439993 20.2733328,25.986666 16.2159996,25.986666 L16.2159996,25.986666 C14.9959996,25.986666 13.6719997,26.0213327 12.2399997,26.0893327" id="path636"></path>
                    </g>
                </g>
                <g id="g638" transform="translate(632.957318, 0.736000)" fill="#fff" fill-rule="nonzero">
                    <g id="g646">
                        <path d="M15.6079996,49.2746654 C13.4306663,49.1573321 11.1679997,49.0999988 8.82533311,49.0999988 L8.82533311,49.0999988 C5.96799985,49.0999988 3.02399992,49.1466654 0,49.2399988 L0,49.2399988 L0.0693333316,47.7333321 L4.43199989,46.3679988 C4.97066654,46.1813322 5.25199987,45.7839989 5.27466653,45.1759989 L5.27466653,45.1759989 C5.29866653,44.4066656 5.31599987,43.5426656 5.3293332,42.5853323 L5.3293332,42.5853323 C5.3413332,41.6266656 5.3453332,40.5546657 5.3453332,39.363999 L5.3453332,39.363999 L5.3453332,10.9613331 C5.3453332,9.55866643 5.3413332,8.28266646 5.3293332,7.12533316 L5.3293332,7.12533316 C5.31599987,5.97066652 5.29866653,4.92666654 5.27466653,3.9919999 L5.27466653,3.9919999 C5.25199987,3.45466658 4.93599988,3.09199992 4.32533323,2.90666659 L4.32533323,2.90666659 L0,1.61066663 L0.139999997,0.103999997 C3.11733326,0.174666662 6.02533318,0.210666661 8.86133311,0.210666661 L8.86133311,0.210666661 C11.0159997,0.210666661 12.985333,0.174666662 14.7639996,0.103999997 L14.7639996,0.103999997 C16.5466663,0.0346666658 18.5733329,0 20.8466661,0 L20.8466661,0 C29.1173326,0 35.5439991,2.38666661 40.1253323,7.16133315 L40.1253323,7.16133315 C44.7066655,11.9359997 46.9959988,18.6426662 46.9959988,27.2813327 L46.9959988,27.2813327 C46.9959988,34.6119991 44.9333322,40.1386657 40.8106656,43.8639989 L40.8106656,43.8639989 C36.6879991,47.5879988 30.5239992,49.4493321 22.3226661,49.4493321 L22.3226661,49.4493321 C20.0266662,49.4493321 17.7879996,49.3906654 15.6079996,49.2746654 M16.3039996,2.95866659 C14.9786663,3.01733326 13.6239997,3.13999992 12.2399997,3.32666658 L12.2399997,3.32666658 L12.2399997,46.1573322 C13.8586663,46.2746655 15.3066663,46.3546655 16.5853329,46.4026655 L16.5853329,46.4026655 C17.8639996,46.4493322 19.0306662,46.4719988 20.0853328,46.4719988 L20.0853328,46.4719988 C26.7453327,46.4719988 31.6119992,44.7146655 34.6839991,41.2026656 L34.6839991,41.2026656 C37.7559991,37.6866657 39.2933324,32.2879992 39.2933324,25.0053327 L39.2933324,25.0053327 C39.2933324,17.5106662 37.6746657,11.9466664 34.4386658,8.31733313 L34.4386658,8.31733313 C31.2026659,4.68666655 26.4879993,2.87066659 20.2973328,2.87066659 L20.2973328,2.87066659 C18.9599995,2.87066659 17.6279996,2.89866659 16.3039996,2.95866659" id="path666"></path>
                    </g>
                </g>
                <g id="g668" transform="translate(701.187982, 0.000000)" fill="#fff" fill-rule="nonzero">
                    <g id="g676">
                        <path d="M5.3653332,47.3146655 C1.81199995,45.0026655 0.0359999991,41.7333323 0.0359999991,37.5079991 L0.0359999991,37.5079991 C0.0359999991,35.4066658 0.409333323,33.5679992 1.15999997,31.9919992 L1.15999997,31.9919992 C1.91066662,30.4159992 2.91333326,29.0853326 4.16933323,27.998666 L4.16933323,27.998666 C5.42266653,26.914666 6.82399983,25.962666 8.37199979,25.1453327 L8.37199979,25.1453327 C9.91999975,24.3279994 11.5146664,23.5693327 13.157333,22.8693328 L13.157333,22.8693328 C14.609333,22.2146661 16.0173329,21.5559995 17.3786662,20.8919995 L17.3786662,20.8919995 C18.7373329,20.2239995 19.9506662,19.4839995 21.0186661,18.6666662 L21.0186661,18.6666662 C22.0853328,17.8493329 22.9359994,16.8733329 23.5693327,15.7426663 L23.5693327,15.7426663 C24.2026661,14.609333 24.5186661,13.2946663 24.5186661,11.8026664 L24.5186661,11.8026664 C24.5186661,8.95333311 23.5386661,6.7586665 21.5813328,5.21866654 L21.5813328,5.21866654 C19.6226662,3.67733324 16.8959996,2.90666659 13.4026663,2.90666659 L13.4026663,2.90666659 C10.7999997,2.90666659 8.25466646,3.39733325 5.76799986,4.37866656 L5.76799986,4.37866656 L3.30666658,14.3239996 L1.72266662,14.0786663 L0,2.17066661 L0.210666661,1.89066662 C4.73599988,0.630666651 8.86533311,0 12.5946664,0 L12.5946664,0 C18.3866662,0 23.1053328,1.2253333 26.7533327,3.67733324 L26.7533327,3.67733324 C30.3986659,6.12933318 32.2239992,9.67733309 32.2239992,14.3239996 L32.2239992,14.3239996 C32.2239992,16.2853329 31.8546659,18.0013329 31.1146659,19.4719995 L31.1146659,19.4719995 C30.3773326,20.9426661 29.3919993,22.2026661 28.158666,23.2546661 L28.158666,23.2546661 C26.9293327,24.3053327 25.5519994,25.2199994 24.0266661,26.002666 L24.0266661,26.002666 C22.5026661,26.7853327 20.9319995,27.526666 19.3133329,28.226666 L19.3133329,28.226666 C17.8359996,28.8813326 16.4039996,29.5453326 15.021333,30.2226659 L15.021333,30.2226659 C13.637333,30.8999992 12.401333,31.6706659 11.3093331,32.5346659 L11.3093331,32.5346659 C10.2186664,33.3986658 9.35066643,34.4026658 8.70533312,35.5466658 L8.70533312,35.5466658 C8.06133313,36.6906657 7.73866647,38.0213324 7.73866647,39.5386657 L7.73866647,39.5386657 C7.73866647,42.2013323 8.65866645,44.2786656 10.5,45.7733322 L10.5,45.7733322 C12.341333,47.2666655 14.8106663,48.0146655 17.9053329,48.0146655 L17.9053329,48.0146655 C19.9693328,48.0146655 22.2319994,47.6053321 24.694666,46.7879988 L24.694666,46.7879988 L26.9813327,38.067999 L28.3879993,38.3133324 L30.4639992,49.2399988 L30.2186659,49.4853321 C26.1613327,50.3493321 22.2786661,50.7813321 18.5733329,50.7813321 L18.5733329,50.7813321 C13.321333,50.7813321 8.91733311,49.6253321 5.3653332,47.3146655" id="path696"></path>
                    </g>
                </g>
            </g>
        </g>
    </g>
</svg>
