<?xml version="1.0" standalone="no"?>
<!DOCTYPE svg PUBLIC "-//W3C//DTD SVG 20010904//EN"
 "http://www.w3.org/TR/2001/REC-SVG-20010904/DTD/svg10.dtd">
<svg version="1.0" xmlns="http://www.w3.org/2000/svg"
 width="512.000000pt" height="512.000000pt" viewBox="0 0 512.000000 512.000000"
 preserveAspectRatio="xMidYMid meet">

<g transform="translate(0.000000,512.000000) scale(0.100000,-0.100000)"
fill="#b37a00" stroke="none">
<path d="M755 5100 c-37 -15 -64 -55 -135 -202 -66 -139 -72 -147 -103 -153
-17 -3 -95 -14 -172 -25 -172 -25 -203 -42 -225 -123 -17 -61 10 -105 145
-236 l119 -115 -28 -166 c-18 -102 -26 -181 -22 -202 10 -53 76 -108 132 -108
15 0 99 37 186 82 l160 83 161 -83 c89 -46 172 -83 185 -82 59 1 120 50 134
107 3 12 -7 100 -23 195 l-28 173 131 132 c127 127 131 132 135 180 5 57 -19
103 -66 127 -16 9 -105 27 -197 41 -92 14 -169 26 -170 28 -1 1 -36 72 -78
158 -62 129 -81 161 -109 178 -35 22 -95 27 -132 11z m236 -473 c18 -13 75
-26 185 -43 88 -13 161 -24 163 -24 3 0 -50 -55 -116 -123 -75 -75 -124 -133
-129 -151 -4 -17 3 -90 19 -184 14 -86 24 -158 22 -160 -2 -2 -64 27 -138 66
-73 39 -149 73 -169 77 -31 6 -54 -3 -183 -69 -81 -42 -151 -76 -155 -76 -4 0
3 57 16 128 27 149 29 212 10 251 -8 15 -65 74 -126 131 -61 56 -109 104 -107
106 1 2 75 14 164 28 98 15 171 31 187 41 17 11 53 70 102 168 l77 151 76
-149 c46 -90 86 -157 102 -168z"/>
<path d="M4120 5103 c-36 -13 -67 -57 -137 -198 -41 -82 -77 -151 -78 -153 -2
-2 -78 -14 -169 -28 -92 -13 -180 -31 -197 -40 -41 -21 -73 -92 -64 -143 5
-29 32 -62 137 -168 l131 -132 -27 -149 c-30 -172 -32 -212 -11 -252 17 -34
81 -70 121 -70 15 0 98 37 185 83 l159 82 160 -82 c88 -46 171 -83 185 -83 43
0 94 27 115 62 26 43 25 86 -6 264 l-25 147 130 131 c78 79 132 142 136 159
15 58 -14 125 -64 152 -16 8 -105 26 -197 40 -92 13 -168 26 -169 27 -2 2 -37
71 -78 154 -87 173 -115 204 -180 203 -23 0 -49 -3 -57 -6z m130 -310 c45 -87
85 -155 101 -166 17 -12 76 -26 180 -42 85 -14 158 -25 164 -25 5 0 -46 -56
-113 -123 -108 -108 -124 -129 -129 -163 -2 -21 7 -106 21 -188 14 -83 24
-151 23 -151 -1 -1 -60 29 -132 68 -71 38 -145 74 -163 79 -43 12 -70 3 -228
-81 -71 -38 -130 -68 -131 -67 -2 1 9 65 22 141 30 165 31 211 7 247 -9 14
-66 72 -125 128 -59 57 -106 104 -104 106 1 2 66 13 142 24 77 12 154 26 172
31 48 15 82 61 148 201 33 70 62 128 65 128 3 0 39 -66 80 -147z"/>
<path d="M2452 4400 c-59 -14 -90 -56 -192 -266 -88 -182 -101 -203 -126 -208
-16 -3 -119 -19 -230 -35 -113 -16 -215 -36 -233 -45 -36 -19 -66 -63 -75
-111 -12 -64 10 -98 188 -274 l169 -168 -37 -210 c-43 -247 -44 -278 -13 -323
36 -53 71 -74 124 -74 41 0 78 16 258 109 l210 108 193 -102 c107 -57 209
-107 228 -112 73 -21 162 30 182 102 15 57 -2 150 -33 177 -33 28 -55 28 -89
1 -24 -19 -27 -27 -25 -75 2 -30 -2 -54 -7 -54 -5 0 -100 48 -212 106 -191
100 -207 106 -251 102 -35 -4 -97 -31 -246 -110 -130 -69 -201 -102 -203 -93
-2 7 13 104 33 216 38 220 41 259 24 292 -6 12 -86 97 -177 189 -91 92 -164
169 -162 172 3 2 102 18 220 36 118 17 223 34 233 36 48 14 85 67 182 263 55
111 103 201 108 201 5 0 49 -84 99 -187 100 -208 126 -249 172 -268 17 -7 130
-28 251 -45 121 -17 222 -33 224 -35 2 -2 -73 -78 -167 -169 -143 -141 -171
-172 -181 -209 -15 -52 -1 -150 26 -179 23 -25 77 -24 104 3 19 19 21 30 16
80 l-5 59 155 148 c178 169 208 211 200 279 -6 52 -30 90 -75 116 -21 12 -107
30 -258 52 -124 19 -227 35 -229 37 -1 2 -50 98 -109 215 -87 172 -112 215
-139 231 -40 25 -83 32 -125 22z"/>
<path d="M135 3241 c-87 -39 -144 -138 -131 -228 8 -59 366 -1216 417 -1347
71 -184 173 -366 262 -470 43 -50 87 -54 124 -11 31 36 25 62 -31 135 -92 120
-165 261 -236 460 -50 137 -390 1238 -390 1261 0 32 40 69 74 69 54 0 69 -28
136 -255 101 -342 139 -453 199 -581 99 -207 240 -399 397 -542 123 -111 455
-362 480 -362 12 0 33 9 48 21 56 44 53 50 -274 462 -165 208 -300 386 -300
396 0 34 39 71 73 71 28 0 63 -30 297 -258 242 -236 273 -262 355 -306 293
-156 464 -381 558 -733 l31 -118 4 -372 3 -373 -360 0 -361 0 0 256 c0 141 -4
263 -9 273 -13 24 -455 383 -490 398 -53 23 -117 -38 -94 -90 6 -13 108 -104
227 -201 l215 -176 3 -284 c3 -263 4 -285 22 -305 19 -21 24 -21 483 -21 525
0 495 -5 508 82 4 24 5 219 2 433 -4 377 -5 393 -30 495 -31 126 -78 263 -119
345 -108 214 -283 392 -506 514 l-66 36 -27 85 c-182 560 -223 678 -245 707
-54 71 -176 100 -251 60 l-31 -17 -18 57 c-36 116 -133 178 -239 154 -27 -6
-56 -12 -64 -14 -9 -1 -22 23 -38 70 -19 55 -34 81 -67 111 -65 60 -159 73
-233 34 -19 -11 -24 -8 -42 17 -50 70 -181 101 -266 62z m434 -218 c15 -13 50
-106 122 -328 l100 -310 -16 -67 c-10 -38 -14 -80 -11 -95 7 -28 7 -28 -13 4
-35 56 -72 133 -106 222 -51 131 -167 530 -160 550 5 16 36 38 56 40 4 1 16
-7 28 -16z m341 -213 c16 -9 65 -143 116 -322 5 -16 -2 -18 -49 -18 l-55 0
-46 138 c-51 152 -53 167 -29 194 18 20 36 23 63 8z m340 -180 c15 -8 95 -229
176 -490 3 -8 -39 29 -94 83 l-98 98 -38 128 c-41 135 -41 166 -3 181 29 12
35 12 57 0z"/>
<path d="M4792 3234 c-29 -14 -61 -39 -73 -55 -18 -25 -23 -28 -42 -17 -74 39
-168 26 -233 -34 -33 -30 -48 -56 -67 -111 -16 -47 -29 -71 -38 -70 -8 2 -36
8 -64 14 -106 24 -203 -38 -239 -154 l-18 -57 -31 17 c-46 24 -132 22 -184 -5
-80 -42 -70 -18 -312 -762 l-28 -85 -82 -46 c-114 -63 -229 -153 -237 -186
-10 -37 14 -75 54 -87 27 -7 37 -5 69 18 21 14 67 47 103 72 36 25 95 61 133
79 57 29 107 72 334 294 237 231 271 261 300 261 41 0 77 -42 68 -79 -3 -13
-139 -191 -301 -395 -320 -404 -324 -411 -268 -455 15 -12 36 -21 48 -21 25 0
359 252 480 362 159 145 298 335 395 539 64 135 95 227 196 569 72 243 86 270
141 270 35 0 74 -37 74 -69 0 -22 -341 -1129 -387 -1256 -72 -199 -154 -356
-249 -475 -68 -86 -71 -88 -415 -368 -163 -133 -299 -248 -303 -257 -3 -9 -6
-131 -6 -271 l0 -254 -360 0 -360 0 0 341 c0 305 2 352 21 442 27 137 70 261
130 379 53 106 56 135 16 163 -35 25 -72 19 -102 -16 -58 -70 -142 -278 -186
-464 -20 -82 -22 -125 -26 -480 -3 -214 -2 -409 2 -433 13 -87 -17 -82 508
-82 459 0 464 0 483 21 18 20 19 42 22 305 l3 284 272 222 c309 251 337 276
416 373 102 124 190 288 267 495 43 114 394 1260 400 1304 9 59 -11 121 -54
168 -73 81 -174 100 -270 52z m-188 -206 c14 -6 28 -19 31 -29 7 -21 -111
-425 -162 -554 -29 -73 -109 -235 -116 -235 -1 0 -2 19 -2 43 0 23 -6 61 -14
84 -13 40 -12 47 88 354 72 226 107 319 122 332 25 20 22 20 53 5z m-332 -225
c26 -23 23 -42 -28 -195 l-46 -138 -55 0 c-47 0 -54 2 -49 18 47 164 100 313
114 321 25 15 43 13 64 -6z m-349 -172 c42 -16 42 -44 1 -182 l-38 -128 -98
-98 c-55 -54 -97 -91 -94 -83 74 239 161 482 174 490 21 12 25 12 55 1z"/>
</g>
</svg>
