<?xml version="1.0" encoding="UTF-8"?>
<svg width="417px" height="259px" viewBox="0 0 417 259" version="1.1" xmlns="http://www.w3.org/2000/svg" xmlns:xlink="http://www.w3.org/1999/xlink">
    <title>Slice</title>
    <defs>
        <linearGradient x1="29.7024603%" y1="1.51984679e-13%" x2="50%" y2="100%" id="linearGradient-1">
            <stop stop-color="#4C210A" offset="0%"></stop>
            <stop stop-color="#715128" offset="38.9887456%"></stop>
            <stop stop-color="#F0E0AE" offset="59.5634834%"></stop>
            <stop stop-color="#F0E0AE" offset="67.6819274%"></stop>
            <stop stop-color="#93774F" offset="76.9558566%"></stop>
            <stop stop-color="#5D3A17" offset="85.4785839%"></stop>
            <stop stop-color="#4C220A" offset="100%"></stop>
        </linearGradient>
        <linearGradient x1="20.4222613%" y1="1.51984679e-13%" x2="50%" y2="100%" id="linearGradient-2">
            <stop stop-color="#4C210A" offset="0%"></stop>
            <stop stop-color="#715128" offset="38.9887456%"></stop>
            <stop stop-color="#F0E0AE" offset="59.5634834%"></stop>
            <stop stop-color="#F0E0AE" offset="67.6819274%"></stop>
            <stop stop-color="#93774F" offset="76.9558566%"></stop>
            <stop stop-color="#5D3A17" offset="85.4785839%"></stop>
            <stop stop-color="#532C10" offset="93.7062937%"></stop>
            <stop stop-color="#4C220A" offset="100%"></stop>
        </linearGradient>
        <linearGradient x1="9.95847077%" y1="-19.5449963%" x2="56.8468242%" y2="114.586209%" id="linearGradient-3">
            <stop stop-color="#7A592D" offset="0%"></stop>
            <stop stop-color="#93774F" offset="23.0441434%"></stop>
            <stop stop-color="#F0E0AE" offset="32.3180726%"></stop>
            <stop stop-color="#F0E0AE" offset="40.4365166%"></stop>
            <stop stop-color="#48250D" offset="49.01934%"></stop>
            <stop stop-color="#715128" offset="68.2145979%"></stop>
            <stop stop-color="#F0E0AE" offset="83.2386364%"></stop>
            <stop stop-color="#F0E0AE" offset="88.9586976%"></stop>
            <stop stop-color="#4C210A" offset="100%"></stop>
        </linearGradient>
        <linearGradient x1="50.004%" y1="50.0002625%" x2="50.00564%" y2="50.0002625%" id="linearGradient-4">
            <stop stop-color="#4F64B8" offset="0%"></stop>
            <stop stop-color="#4F64B8" offset="1.1236%"></stop>
            <stop stop-color="#2D4DA1" offset="37.0786%"></stop>
            <stop stop-color="#2D48A0" offset="50%"></stop>
            <stop stop-color="#455EB4" offset="69.1011%"></stop>
            <stop stop-color="#27417D" offset="80.8989%"></stop>
            <stop stop-color="#2D4DA1" offset="96.0674%"></stop>
            <stop stop-color="#2D4DA1" offset="100%"></stop>
        </linearGradient>
        <linearGradient x1="49.9991361%" y1="1.51984679e-13%" x2="50%" y2="100%" id="linearGradient-5">
            <stop stop-color="#4C210A" offset="0%"></stop>
            <stop stop-color="#715128" offset="38.9887456%"></stop>
            <stop stop-color="#F0E0AE" offset="59.5634834%"></stop>
            <stop stop-color="#F0E0AE" offset="67.6819274%"></stop>
            <stop stop-color="#93774F" offset="76.9558566%"></stop>
            <stop stop-color="#5D3A17" offset="85.4785839%"></stop>
            <stop stop-color="#4C220A" offset="100%"></stop>
        </linearGradient>
    </defs>
    <g id="Logo" stroke="none" stroke-width="1" fill="none" fill-rule="evenodd">
        <g id="Beauty_Kingdom_academyAWARD-_logo_BLUE" transform="translate(-0.488009, 0.000000)">
            <g id="g10" transform="translate(208.281328, 129.529330) scale(-1, 1) rotate(-180.000000) translate(-208.281328, -129.529330) ">
                <g id="g12" transform="translate(-0.000000, 58.289332)" fill="url(#linearGradient-1)" fill-rule="nonzero">
                    <g id="g14" transform="translate(-0.000000, 0.000000)">
                        <g id="g20" transform="translate(-0.000000, 0.000000)">
                            <g id="g22" transform="translate(-0.000000, 0.000000)">
                                <path d="M62.4213318,177.210662 C63.7199984,177.018662 64.9479984,176.790662 66.106665,176.529329 C74.3359981,174.571996 81.0666646,170.418662 86.1106645,164.179996 C91.0693311,158.050663 94.2186643,151.07733 95.4839976,143.455996 C96.7386642,135.862663 96.1479976,128.223997 93.729331,120.739997 C91.2613311,113.094664 86.8319978,106.651997 80.087998,102.263997 C71.1533316,96.4533309 59.2813319,94.5479976 59.2813319,94.5479976 C60.2053318,94.4839976 74.0693315,93.4146643 82.1359979,90.9359977 C87.5293311,89.2799978 92.4639977,86.9706645 96.6586643,83.6133312 C100.689331,80.403998 104.110664,76.1013314 106.822664,70.8306649 C109.493331,65.638665 111.343997,59.9373318 112.326664,53.881332 C113.305331,47.7959988 113.169331,41.551999 111.925331,35.3066658 C110.653331,28.9706659 108.251997,22.9693328 104.007997,18.0693329 C88.4853311,0.150666663 62.4213318,0.150666663 62.4213318,0.150666663 L93.2786643,0.211999995 C101.657331,0.211999995 109.291997,2.34933327 115.962664,6.5666665 C122.722664,10.8413331 128.16933,16.2919996 132.154663,22.7639994 C136.147997,29.2639993 138.627997,36.5066658 139.530663,44.2853322 C140.418663,52.0039987 139.395997,59.4213318 136.49333,66.310665 C134.37733,71.2133316 131.83733,75.3946648 128.823997,78.635998 C111.913331,96.8133309 81.5493313,95.9186643 81.5493313,95.9186643 C81.5493313,95.9186643 116.89333,103.097331 122.30133,133.95333 C123.227997,139.238663 122.371997,144.60533 120.84133,149.770663 C119.314664,154.915996 116.754664,159.577329 113.234664,163.618663 C109.702664,167.674662 105.219997,170.999996 99.9093308,173.501329 C94.617331,175.990662 88.4093311,177.254662 81.4586646,177.254662 L62.4213318,177.210662 Z M-3.43112862e-14,177.049329 C3.45866658,174.961329 6.19333318,172.270662 8.14266646,169.031996 L8.14266646,169.031996 C10.3693331,165.339996 11.7786664,160.849329 12.329333,155.691996 L12.329333,155.691996 C12.853333,150.787996 13.1146663,145.238663 13.1146663,139.199997 L13.1146663,139.199997 L13.1146663,37.7639991 C13.1146663,31.8879992 12.853333,26.470666 12.329333,21.6479995 L12.329333,21.6479995 C11.7839997,16.6226663 10.4799997,12.169333 8.45866646,8.41066646 L8.45866646,8.41066646 C6.62533317,5.02266654 3.91333324,2.19866661 0.37999999,0 L0.37999999,0 L38.727999,0.0786666647 L38.727999,35.2679991 L38.727999,177.135996 L-3.43112862e-14,177.049329 Z" id="path42"></path>
                            </g>
                        </g>
                    </g>
                </g>
                <g id="g44" transform="translate(247.719994, 60.179998)" fill-rule="nonzero">
                    <g id="g46" transform="translate(-0.000000, 0.000000)">
                        <g id="g52" transform="translate(-0.000000, 0.000000)">
                            <g id="g54" transform="translate(-0.000000, 0.000000)">
                                <path d="M112.146664,177.290662 C122.94933,173.458662 116.627997,158.425329 116.627997,158.425329 L116.627997,158.425329 C120.19733,161.738663 133.18533,172.595996 136.111997,174.575996 L136.111997,174.575996 C137.583997,175.573329 139.102663,176.477329 140.651996,177.290662 L140.651996,177.290662 L112.146664,177.290662 Z M0.0986666642,177.290662 C1.92399995,176.178662 3.64666658,174.789329 5.2493332,173.143996 L5.2493332,173.143996 C9.38799977,168.930662 11.8199997,163.834663 12.4826664,157.993329 L12.4826664,157.993329 C13.0879997,152.582663 13.397333,146.35733 13.397333,139.48933 L13.397333,139.48933 L13.397333,37.7999991 C13.397333,28.0439993 12.8719997,21.0093328 11.7959997,16.3093329 L11.7959997,16.3093329 C10.0986664,8.60666645 6.24933318,3.17999992 0.362666658,0.183999995 L0.362666658,0.183999995 C0.243999994,0.12133333 0.12133333,0.0599999985 -1.63161779e-14,0 L-1.63161779e-14,0 L52.4746654,0 C48.8493321,2.11733328 45.9973322,4.87199988 43.9839989,8.21999979 L43.9839989,8.21999979 C41.7573323,11.913333 40.3493323,16.3573329 39.7946657,21.4333328 L39.7946657,21.4333328 C39.2733324,26.2573327 39.0106657,31.7599992 39.0106657,37.7999991 L39.0106657,37.7999991 L39.0106657,84.5426646 L39.0106657,85.1239979 L39.0106657,116.987997 L39.0106657,139.48933 C39.0106657,145.582663 39.3213324,151.103996 39.927999,155.897329 L39.927999,155.897329 C40.5653323,160.946663 42.0159989,165.375996 44.2359989,169.069329 L44.2359989,169.069329 C46.2586655,172.415996 49.1093321,175.177329 52.7239987,177.290662 L52.7239987,177.290662 L0.0986666642,177.290662 Z M64.7199984,109.282664 C59.6679985,104.451997 55.217332,100.173331 51.365332,96.4279976 L51.365332,96.4279976 C51.2053321,96.2759976 51.0759987,96.1519976 50.9213321,96.0013309 L50.9213321,96.0013309 L50.9226654,96 L50.9879987,95.8613309 L52.7039987,93.781331 C56.1266653,89.6199978 60.3626652,84.5519979 65.4119984,78.5586647 L65.4119984,78.5586647 C70.4746649,72.5599982 75.6693314,66.3039983 80.991998,59.7986652 L80.991998,59.7986652 C86.3093312,53.293332 91.4599977,46.9106655 96.4399976,40.655999 L96.4399976,40.655999 C101.421332,34.3973325 105.521331,28.9319993 108.651997,24.3706661 L108.651997,24.3706661 C115.16933,14.489333 116.55733,7.44933315 112.894664,2.84399993 L112.894664,2.84399993 C112.047997,1.78133329 110.998664,0.834666646 109.741331,0 L109.741331,0 L168.842662,0 C165.227996,1.84266662 161.575996,4.25333323 157.926663,7.20799982 L157.926663,7.20799982 C152.67333,11.4626664 148.05333,16.0399996 144.190663,20.8199995 L144.190663,20.8199995 L76.8186647,104.135997 L76.8159981,104.137331 L69.2613316,113.48133 L69.2946649,113.511997 L69.2226649,113.603997 C67.7133316,112.154664 66.182665,110.679997 64.7199984,109.282664" id="path74" fill="url(#linearGradient-2)"></path>
                                <path d="M112.146664,177.290662 C122.94933,173.458662 116.627997,158.425329 116.627997,158.425329 L116.627997,158.425329 C120.19733,161.738663 133.18533,172.595996 136.111997,174.575996 L136.111997,174.575996 C137.583997,175.573329 139.102663,176.477329 140.651996,177.290662 L140.651996,177.290662 L112.146664,177.290662 Z M0.0986666642,177.290662 C1.92399995,176.178662 3.64666658,174.789329 5.2493332,173.143996 L5.2493332,173.143996 C9.38799977,168.930662 11.8199997,163.834663 12.4826664,157.993329 L12.4826664,157.993329 C13.0879997,152.582663 13.397333,146.35733 13.397333,139.48933 L13.397333,139.48933 L13.397333,37.7999991 C13.397333,28.0439993 12.8719997,21.0093328 11.7959997,16.3093329 L11.7959997,16.3093329 C10.0986664,8.60666645 6.24933318,3.17999992 0.362666658,0.183999995 L0.362666658,0.183999995 C0.243999994,0.12133333 0.12133333,0.0599999985 4.38431173e-13,4.54747351e-13 L4.38431173e-13,4.54747351e-13 L52.4746654,4.54747351e-13 C48.8493321,2.11733328 45.9973322,4.87199988 43.9839989,8.21999979 L43.9839989,8.21999979 C41.7573323,11.913333 40.3493323,16.3573329 39.7946657,21.4333328 L39.7946657,21.4333328 C39.2733324,26.2573327 39.0106657,31.7599992 39.0106657,37.7999991 L39.0106657,37.7999991 L39.0106657,84.5426646 L39.0106657,85.1239979 L39.0106657,116.987997 L39.0106657,139.48933 C39.0106657,145.582663 39.3213324,151.103996 39.927999,155.897329 L39.927999,155.897329 C40.5653323,160.946663 42.0159989,165.375996 44.2359989,169.069329 L44.2359989,169.069329 C46.2586655,172.415996 49.1093321,175.177329 52.7239987,177.290662 L52.7239987,177.290662 L0.0986666642,177.290662 Z M64.7199984,109.282664 C59.6679985,104.451997 55.217332,100.173331 51.365332,96.4279976 L51.365332,96.4279976 C51.2053321,96.2759976 51.0759987,96.1519976 50.9213321,96.0013309 L50.9213321,96.0013309 L50.9226654,96 L50.9879987,95.8613309 L52.7039987,93.781331 C56.1266653,89.6199978 60.3626652,84.5519979 65.4119984,78.5586647 L65.4119984,78.5586647 C70.4746649,72.5599982 75.6693314,66.3039983 80.991998,59.7986652 L80.991998,59.7986652 C86.3093312,53.293332 91.4599977,46.9106655 96.4399976,40.655999 L96.4399976,40.655999 C101.421332,34.3973325 105.521331,28.9319993 108.651997,24.3706661 L108.651997,24.3706661 C115.16933,14.489333 116.55733,7.44933315 112.894664,2.84399993 L112.894664,2.84399993 C112.047997,1.78133329 110.998664,0.834666646 109.741331,4.54747351e-13 L109.741331,4.54747351e-13 L168.842662,4.54747351e-13 C165.227996,1.84266662 161.575996,4.25333323 157.926663,7.20799982 L157.926663,7.20799982 C152.67333,11.4626664 148.05333,16.0399996 144.190663,20.8199995 L144.190663,20.8199995 L76.8186647,104.135997 L76.8159981,104.137331 L69.2613316,113.48133 L69.2946649,113.511997 L69.2226649,113.603997 C67.7133316,112.154664 66.182665,110.679997 64.7199984,109.282664" id="path74" fill="url(#linearGradient-3)"></path>
                            </g>
                        </g>
                    </g>
                </g>
                <g id="g76" transform="translate(190.514662, 0.000000)" fill="url(#linearGradient-4)" fill-rule="nonzero">
                    <g id="g86">
                        <path d="M0.66666665,0 L0.66666665,259.05866 L0.66666665,0 Z" id="path106"></path>
                    </g>
                </g>
                <polygon id="path126" stroke="url(#linearGradient-5)" stroke-width="2.6666666" points="191.181329 0.0013333333 191.181329 0.0013333333 191.181329 259.05866 191.181329 259.05866"></polygon>
            </g>
        </g>
    </g>
</svg>
