<?xml version="1.0" standalone="no"?>
<!DOCTYPE svg PUBLIC "-//W3C//DTD SVG 20010904//EN"
 "http://www.w3.org/TR/2001/REC-SVG-20010904/DTD/svg10.dtd">
<svg version="1.0" xmlns="http://www.w3.org/2000/svg"
 width="512.000000pt" height="512.000000pt" viewBox="0 0 512.000000 512.000000"
 preserveAspectRatio="xMidYMid meet">

<g transform="translate(0.000000,512.000000) scale(0.100000,-0.100000)"
fill="#000000" stroke="none">
<path d="M4701 4675 c-183 -60 -292 -102 -308 -116 -13 -13 -28 -39 -34 -60
-17 -56 2 -102 64 -151 29 -22 53 -43 55 -48 3 -7 -103 -149 -188 -251 -38
-45 -50 -68 -50 -93 0 -41 29 -69 72 -69 26 0 41 10 81 54 66 74 255 323 265
350 16 42 1 68 -64 116 -35 26 -62 48 -60 50 1 2 100 37 219 77 l216 75 -6
-227 c-3 -125 -7 -229 -10 -231 -2 -3 -24 10 -48 27 -48 34 -90 41 -117 20 -8
-7 -50 -60 -93 -118 -438 -589 -1025 -1103 -1680 -1470 -492 -276 -1084 -487
-1650 -589 -336 -60 -581 -83 -928 -85 l-249 -1 -19 24 c-25 30 -24 62 2 95
20 26 21 26 167 26 1079 0 2068 291 2937 865 287 190 521 378 773 622 103 100
122 123 122 148 0 60 -55 99 -103 74 -12 -6 -80 -69 -152 -138 -134 -131 -274
-254 -404 -354 l-73 -57 -319 0 c-364 0 -373 -2 -426 -82 -28 -41 -28 -45 -31
-220 l-4 -178 -95 -45 c-53 -25 -97 -45 -99 -45 -2 0 -4 32 -4 70 0 83 -16
126 -59 163 -55 46 -82 48 -437 45 l-331 -3 -40 -27 c-72 -47 -78 -71 -81
-334 l-3 -231 -100 -20 -99 -20 0 129 c0 87 -4 139 -14 161 -16 39 -61 82 -99
96 -18 7 -150 11 -361 11 -324 0 -333 -1 -376 -22 -86 -44 -99 -86 -100 -305
l0 -153 -93 0 c-80 0 -100 -4 -144 -25 -106 -53 -151 -178 -102 -285 45 -99
103 -132 242 -138 l97 -4 0 -383 0 -384 -57 -6 c-81 -9 -174 -56 -218 -110
-63 -76 -75 -124 -75 -296 0 -164 7 -191 57 -225 27 -19 90 -19 2467 -22 1592
-1 2451 1 2475 8 20 5 50 24 66 41 l30 30 0 167 c0 154 -2 171 -24 220 -46
101 -145 170 -273 188 l-48 6 0 1213 c0 832 -3 1223 -11 1242 -15 42 -68 92
-109 103 -19 5 -63 10 -98 10 l-63 0 89 103 c79 91 202 243 258 321 l20 28 49
-31 c57 -36 97 -39 142 -11 64 39 65 43 75 358 5 158 7 301 3 319 -6 33 -64
93 -90 93 -7 0 -19 2 -27 5 -7 3 -141 -38 -297 -90z m-93 -2457 l2 -1208 -325
0 -325 0 0 1034 0 1034 138 125 c75 69 159 148 187 176 l50 52 135 -3 135 -3
3 -1207z m-1473 813 c-115 -74 -301 -181 -314 -181 -12 0 -16 196 -5 224 5 14
33 16 208 16 l201 0 -90 -59z m675 -1046 l0 -975 -100 0 -100 0 0 302 c0 296
0 302 -22 325 -30 33 -80 31 -107 -3 -20 -26 -21 -38 -21 -325 l0 -299 -325 0
-325 0 2 663 3 662 55 29 c164 85 330 178 445 250 71 45 133 83 137 84 5 2 8
-181 8 -406 0 -455 -2 -445 67 -458 26 -5 37 -1 57 19 l26 26 0 464 0 464 98
76 c53 41 98 76 100 76 1 1 2 -438 2 -974z m-1502 714 l3 -97 -128 -47 c-225
-83 -506 -168 -517 -157 -3 3 -6 89 -6 192 0 132 3 189 12 198 9 9 90 12 323
10 l310 -3 3 -96z m-1150 -275 c3 -130 2 -132 -20 -137 -79 -20 -598 -61 -620
-50 -9 5 -11 284 -2 307 6 15 41 16 323 14 l316 -3 3 -131z m1502 -789 l0
-625 -100 0 -100 0 2 586 3 585 90 39 c50 21 93 39 98 39 4 1 7 -280 7 -624z
m-350 -70 l0 -555 -325 0 -325 0 0 459 0 459 104 26 c125 31 411 118 481 145
28 11 53 20 58 21 4 0 7 -250 7 -555z m-800 -115 l0 -440 -100 0 -100 0 0 140
c0 136 -1 142 -25 165 -13 14 -36 25 -50 25 -14 0 -37 -11 -50 -25 -24 -23
-25 -29 -25 -165 l0 -140 -325 0 -325 0 0 384 0 385 43 5 c23 3 104 8 179 11
75 3 192 12 260 20 189 22 168 38 168 -120 0 -131 1 -137 25 -160 31 -32 69
-32 100 0 24 23 25 28 25 174 l0 149 78 15 c42 8 87 15 100 16 l22 1 0 -440z
m3322 -600 c48 -14 97 -55 114 -97 9 -21 14 -72 14 -143 l0 -110 -2400 0
-2400 0 0 117 c0 106 2 120 25 158 23 40 60 66 110 78 43 10 4500 7 4537 -3z"/>
</g>
</svg>
