<?xml version="1.0" standalone="no"?>
<!DOCTYPE svg PUBLIC "-//W3C//DTD SVG 20010904//EN"
 "http://www.w3.org/TR/2001/REC-SVG-20010904/DTD/svg10.dtd">
<svg version="1.0" xmlns="http://www.w3.org/2000/svg"
 width="512.000000pt" height="512.000000pt" viewBox="0 0 512.000000 512.000000"
 preserveAspectRatio="xMidYMid meet">

<g transform="translate(0.000000,512.000000) scale(0.100000,-0.100000)"
fill="#000000" stroke="none">
<path d="M2273 5106 c-122 -39 -195 -141 -209 -288 l-7 -78 -891 -2 -891 -3
-37 -23 c-57 -36 -81 -82 -86 -171 -6 -102 9 -150 58 -195 l40 -36 0 -1350 0
-1350 -39 -35 c-48 -44 -65 -98 -60 -198 5 -92 38 -148 102 -178 39 -17 70
-19 385 -19 l343 0 24 25 c32 31 32 69 0 100 l-24 25 -334 0 c-296 0 -336 2
-341 16 -10 27 -6 110 6 122 16 16 4459 18 4489 2 15 -8 19 -21 19 -60 0 -26
-3 -55 -6 -64 -6 -15 -172 -16 -1784 -16 l-1777 0 -27 -21 c-34 -27 -35 -71
-1 -104 l24 -25 241 0 240 0 0 -95 c0 -105 10 -137 61 -191 l29 -30 -150 -386
c-82 -213 -150 -396 -150 -408 0 -28 43 -70 73 -70 14 0 34 8 46 18 13 10 77
163 172 407 83 215 153 396 156 403 7 18 1179 18 1186 0 3 -7 73 -188 156
-403 95 -244 159 -397 172 -407 12 -10 32 -18 46 -18 30 0 73 42 73 70 0 12
-68 197 -152 411 l-151 390 25 27 c48 50 58 84 58 187 l0 95 723 0 c688 0 724
1 764 19 65 30 95 84 101 182 6 96 -13 154 -64 198 l-34 30 0 1351 0 1350 39
35 c49 44 65 100 59 199 -6 86 -29 133 -86 168 l-37 23 -891 3 -891 2 -7 78
c-12 132 -73 229 -175 276 -43 19 -65 21 -306 23 -195 2 -270 -1 -302 -11z
m557 -158 c54 -37 72 -69 77 -142 l6 -66 -353 0 -353 0 6 66 c5 73 23 105 77
142 32 21 41 22 270 22 229 0 238 -1 270 -22z m1978 -370 c16 -16 16 -110 0
-126 -9 -9 -86 -12 -287 -12 -268 0 -275 -1 -298 -22 -28 -26 -30 -67 -4 -99
19 -24 21 -24 260 -27 l241 -3 0 -1330 0 -1329 -2160 0 -2160 0 0 1330 0 1330
1780 0 c1544 0 1785 2 1809 15 46 23 54 66 20 109 l-20 26 -1833 0 c-1411 0
-1835 3 -1844 12 -16 16 -16 110 0 126 17 17 4479 17 4496 0z m-1578 -3483 c0
-73 -3 -86 -19 -95 -27 -14 -1285 -14 -1312 0 -16 9 -19 22 -19 95 l0 85 675
0 675 0 0 -85z"/>
<path d="M1588 3941 c-127 -41 -220 -122 -277 -241 l-36 -75 -3 -537 c-2 -475
-1 -541 13 -568 35 -68 131 -91 196 -47 19 13 57 40 86 60 l51 38 124 -3 123
-3 6 -110 c4 -63 13 -129 23 -155 57 -152 194 -264 356 -289 39 -7 275 -11
584 -11 l519 0 69 -52 c59 -43 78 -52 122 -55 62 -5 105 18 129 70 15 31 17
88 17 531 0 324 -4 513 -11 548 -17 81 -74 182 -135 238 -96 87 -195 120 -359
120 l-95 0 0 75 c0 146 -38 249 -125 343 -29 32 -75 70 -102 85 -103 56 -121
57 -693 56 -480 0 -530 -2 -582 -18z m1188 -163 c59 -31 108 -84 138 -147 20
-44 21 -62 21 -371 l0 -325 -27 -50 c-60 -113 -141 -161 -291 -171 -107 -8
-130 -21 -130 -74 0 -57 24 -70 135 -70 150 0 244 37 339 134 98 99 129 197
129 410 l0 138 113 -3 c98 -4 119 -8 169 -32 64 -31 111 -80 142 -146 20 -45
21 -62 24 -534 l3 -489 -68 49 -68 48 -580 5 -580 5 -57 28 c-62 30 -106 74
-140 140 -17 33 -23 64 -26 145 l-4 102 128 0 c105 0 131 3 146 17 23 20 24
80 1 105 -15 17 -40 18 -378 18 l-362 0 -59 -45 c-32 -24 -62 -45 -66 -45 -5
0 -8 214 -8 475 0 454 1 477 21 529 14 40 35 69 74 105 91 83 67 80 675 78
l535 -2 51 -27z"/>
<path d="M2111 708 c-32 -21 -44 -48 -148 -313 -62 -160 -113 -297 -114 -305
-3 -34 2 -50 23 -70 29 -26 69 -26 95 2 12 13 65 136 118 273 54 138 101 258
106 268 8 13 23 17 69 17 l60 0 0 -249 c0 -155 4 -260 11 -280 19 -54 79 -69
117 -28 22 23 22 29 22 330 l0 307 -29 32 -29 33 -134 3 c-125 3 -135 2 -167
-20z"/>
<path d="M2714 720 c-12 -4 -31 -21 -43 -36 -20 -26 -21 -35 -21 -334 l0 -307
23 -21 c41 -39 96 -23 117 32 6 16 10 128 10 277 l0 249 60 0 c46 0 61 -4 69
-17 5 -10 52 -130 106 -268 53 -137 106 -260 118 -272 48 -53 125 -9 118 67
-1 8 -52 145 -114 305 -139 354 -121 335 -301 334 -67 0 -131 -4 -142 -9z"/>
</g>
</svg>
