<?xml version="1.0" standalone="no"?>
<!DOCTYPE svg PUBLIC "-//W3C//DTD SVG 20010904//EN"
 "http://www.w3.org/TR/2001/REC-SVG-20010904/DTD/svg10.dtd">
<svg version="1.0" xmlns="http://www.w3.org/2000/svg"
 width="512.000000pt" height="512.000000pt" viewBox="0 0 512.000000 512.000000"
 preserveAspectRatio="xMidYMid meet">

<g transform="translate(0.000000,512.000000) scale(0.100000,-0.100000)"
fill="#000000" stroke="none">
<path d="M995 5095 c-47 -46 -37 -66 96 -201 74 -75 120 -128 116 -136 -8 -22
-838 -878 -850 -878 -6 0 -63 52 -127 115 -106 104 -120 115 -153 115 -44 0
-77 -31 -77 -72 0 -23 24 -51 125 -151 126 -122 176 -156 228 -157 22 0 54
-24 148 -112 101 -96 121 -121 135 -163 29 -86 90 -212 146 -297 66 -102 143
-188 270 -307 107 -100 131 -109 173 -66 48 47 38 65 -118 224 -188 191 -271
318 -327 496 -21 67 -27 75 -142 187 -66 64 -119 121 -117 126 5 13 759 792
766 792 4 0 56 -50 118 -110 l112 -111 149 -25 c240 -40 315 -65 429 -144 62
-42 513 -478 531 -512 29 -55 5 -120 -53 -144 -58 -25 -83 -11 -208 107 -108
103 -118 110 -152 107 -45 -4 -79 -43 -69 -81 4 -16 153 -167 391 -398 212
-204 385 -375 385 -379 0 -5 3 -15 6 -24 5 -13 -2 -16 -39 -16 -25 0 -57 -4
-71 -10 -22 -8 -26 -7 -26 8 -1 28 -39 105 -68 135 -46 48 -100 71 -175 73
l-68 1 -138 137 c-114 111 -144 136 -168 136 -58 0 -97 -56 -72 -103 7 -12 66
-74 132 -138 l121 -115 -20 -42 c-15 -35 -23 -41 -39 -36 -11 4 -49 8 -84 10
l-64 2 -81 80 c-112 111 -138 121 -181 77 -44 -43 -34 -70 55 -160 l81 -81
-25 -45 c-14 -24 -26 -57 -27 -74 0 -16 -4 -41 -8 -55 -6 -23 -12 -19 -118 83
-97 94 -116 107 -146 107 -38 0 -62 -21 -73 -64 -7 -28 2 -38 164 -197 l172
-167 0 -121 0 -122 -27 15 c-16 8 -41 29 -58 46 -16 18 -123 122 -237 231
-223 215 -235 223 -283 174 -15 -15 -25 -36 -25 -54 0 -25 30 -58 210 -232
206 -198 209 -203 187 -217 -48 -32 -81 -69 -103 -117 -24 -50 -24 -52 -24
-427 0 -414 4 -455 61 -597 16 -42 73 -140 125 -218 l94 -142 0 -160 c0 -97
-4 -162 -10 -166 -6 -4 -19 -24 -30 -45 -16 -32 -20 -59 -20 -144 0 -101 1
-105 26 -125 35 -27 57 -26 91 3 25 22 28 31 33 112 l5 89 615 0 615 0 5 -92
c6 -102 14 -118 67 -129 26 -5 37 -1 57 19 24 24 26 32 26 122 0 98 -12 148
-43 174 -15 12 -17 38 -17 186 l0 172 39 84 c80 175 119 341 123 532 l3 119
-28 24 c-34 29 -56 30 -90 4 -23 -19 -25 -27 -32 -142 -11 -204 -47 -342 -129
-505 l-36 -73 0 -170 0 -170 -560 0 -560 0 0 165 0 165 -94 138 c-185 271
-186 276 -186 763 0 367 0 368 23 394 41 47 122 50 163 4 17 -18 20 -42 24
-190 5 -157 7 -170 27 -190 27 -27 75 -29 103 -4 19 17 19 34 22 562 l3 545
33 29 c40 36 81 38 119 5 l28 -24 5 -421 c5 -461 3 -444 67 -457 26 -5 37 -1
57 19 l26 26 0 469 c0 317 4 479 11 501 22 63 102 80 150 32 l29 -29 0 -487 0
-486 25 -24 c29 -30 64 -32 96 -6 l24 19 5 392 5 392 28 24 c18 15 41 24 62
24 21 0 44 -9 62 -24 l28 -24 5 -392 5 -392 24 -19 c30 -24 62 -24 92 0 l24
19 5 319 c3 175 7 319 8 320 49 51 103 58 149 19 l28 -24 5 -437 c5 -418 6
-437 24 -451 23 -16 59 -18 86 -4 36 19 40 63 40 406 l0 332 37 -10 c53 -14
125 -5 178 23 66 35 546 477 605 556 80 110 119 202 165 386 l41 169 114 104
c96 86 120 103 148 104 18 0 48 6 66 14 30 13 251 204 283 245 34 44 -5 111
-65 111 -27 0 -52 -18 -152 -110 -66 -60 -126 -110 -133 -110 -7 0 -52 45
-101 100 -50 56 -100 103 -113 106 -52 13 -102 -37 -90 -88 4 -13 38 -59 77
-102 l71 -78 -63 -56 c-35 -31 -89 -81 -121 -112 l-58 -55 -39 -160 c-77 -319
-95 -346 -432 -653 -137 -125 -263 -233 -278 -241 -62 -30 -150 22 -150 90 0
49 23 79 134 178 58 52 107 100 110 108 20 50 -17 103 -71 103 -25 0 -53 -21
-155 -114 -69 -63 -130 -128 -137 -145 -11 -26 -16 -29 -38 -20 -33 12 -140
12 -164 -1 -16 -9 -21 -6 -36 26 l-18 36 45 41 c143 130 160 149 160 181 0 40
-35 76 -73 76 -18 0 -45 -18 -88 -57 -58 -54 -63 -57 -73 -38 -6 10 -33 43
-60 72 l-50 54 57 57 c65 65 74 105 35 142 -37 34 -69 26 -137 -35 l-62 -56
-105 97 c-57 53 -104 100 -104 104 0 4 14 13 30 20 45 19 99 87 117 149 19 66
12 127 -21 194 l-24 48 52 48 c143 134 308 279 361 318 88 65 261 147 367 174
l92 24 111 100 c60 55 117 106 126 112 13 11 45 -20 223 -217 194 -214 210
-230 242 -230 44 0 74 30 74 73 0 28 -29 64 -226 281 -124 136 -224 253 -222
260 2 6 58 62 126 124 109 102 122 117 122 147 0 24 -7 39 -26 54 -47 37 -65
29 -206 -99 -138 -125 -155 -146 -166 -209 -6 -32 -25 -54 -124 -145 -117
-106 -118 -107 -215 -138 -240 -74 -361 -153 -662 -427 -85 -78 -157 -141
-160 -141 -3 0 -93 83 -199 185 -300 288 -369 325 -690 380 l-146 24 -113 113
c-90 90 -113 118 -113 141 0 51 -37 101 -164 220 -137 127 -157 137 -201 92z"/>
</g>
</svg>
