<?xml version="1.0" encoding="UTF-8"?>
<svg width="95px" height="93px" viewBox="0 0 95 93" version="1.1" xmlns="http://www.w3.org/2000/svg" xmlns:xlink="http://www.w3.org/1999/xlink">
    <title>crown-3</title>
    <g id="backgorund" stroke="none" stroke-width="1" fill="none" fill-rule="evenodd">
        <g id="crown-3" transform="translate(0.000000, 2.000000)" stroke="#b8860b" stroke-width="4">
            <polyline id="Path-2" stroke-linecap="round" stroke-linejoin="round" points="23.2822388 89 15.1230104 89 15.1230104 79.9018865 6 40.0306901 32.8774223 53.7233446 48.5131791 30 65.2445435 53.7233446 91 40.0067529 82.1486598 79.9018865 82.1486598 89 34.3789958 89"></polyline>
            <circle id="Oval" fill="#FFFFFF" cx="5" cy="41" r="3"></circle>
            <circle id="Oval" fill="#FFFFFF" cx="90" cy="41" r="3"></circle>
            <circle id="Oval" fill="#FFFFFF" cx="48" cy="30" r="3"></circle>
            <line x1="23" y1="80" x2="15" y2="80.0078073" id="Path-3" stroke-linecap="round"></line>
            <line x1="81" y1="80" x2="34" y2="80.0078073" id="Path-3" stroke-linecap="round"></line>
            <line x1="16" y1="18.3315735" x2="22" y2="23.9315735" id="Path-4" stroke-linecap="round"></line>
            <line x1="71" y1="18.3315735" x2="77" y2="23.9315735" id="Path-4" stroke-linecap="round" transform="translate(74.000000, 21.000000) scale(-1, 1) translate(-74.000000, -21.000000) "></line>
            <line x1="48.5" y1="0.373020181" x2="48.5" y2="8.92302018" id="Path-4" stroke-linecap="round" transform="translate(48.500000, 4.500000) scale(-1, 1) translate(-48.500000, -4.500000) "></line>
        </g>
    </g>
</svg>
