<?xml version="1.0" encoding="iso-8859-1"?>
<!-- Generator: Adobe Illustrator 18.0.0, SVG Export Plug-In . SVG Version: 6.00 Build 0)  -->
<!DOCTYPE svg PUBLIC "-//W3C//DTD SVG 1.1//EN" "http://www.w3.org/Graphics/SVG/1.1/DTD/svg11.dtd">
<svg version="1.1" id="Capa_1" xmlns="http://www.w3.org/2000/svg" xmlns:xlink="http://www.w3.org/1999/xlink" x="0px" y="0px"
	 viewBox="0 0 481.964 481.964" fill="#b37a00" style="enable-background:new 0 0 481.964 481.964;" xml:space="preserve">
<path d="M322.298,136.78c1.374-5.643,2.908-9.91,4.391-14.037c3.797-10.563,7.384-20.541,6.298-46.19
	c-0.621-14.646,7.016-44.066,10.011-54.167l3.026-10.205L293.047,0l-2.316,9.624c-0.021,0.089-2.355,9.201-9.557,18.306
	c-9.644,12.191-23.166,18.373-40.191,18.373c-40.045,0-49.383-35.23-49.749-36.679L188.917,0L135.94,12.183l3.026,10.204
	c2.995,10.101,10.632,39.521,10.011,54.167c-1.086,25.649,2.501,35.626,6.298,46.189c1.483,4.126,3.017,8.393,4.391,14.037
	c4.649,19.096,2.531,51.879,0.642,57.128c-2.601,5.673-30.508,68.862-18.948,142.325c11.838,75.223,12.523,127.106,12.528,127.621
	l0.086,8.049l7.88,1.636c1.656,0.344,41.006,8.424,79.128,8.424c38.124,0,77.474-8.08,79.13-8.424l7.88-1.638l0.086-8.047
	c0.005-0.516,0.689-52.399,12.527-127.622c11.544-73.363-16.272-136.481-18.938-142.303
	C319.76,188.557,317.656,155.847,322.298,136.78z M160.959,26.95l14.176-3.259c2.079,4.728,5.271,10.705,9.97,16.646
	c9.37,11.846,26.669,25.966,55.877,25.966c29.207,0,46.507-14.12,55.877-25.966c4.7-5.941,7.892-11.918,9.97-16.646l14.176,3.259
	c-3.413,13.145-8.617,35.911-8,50.45c0.92,21.729-1.62,28.796-5.136,38.577c-1.583,4.403-3.377,9.394-5.003,16.071
	c-3.302,13.564-3.522,30.485-3.36,39.365c0.054,2.92,0.249,9.698,0.941,16.398H181.518c0.692-6.7,0.887-13.479,0.941-16.398
	c0.162-8.879-0.058-25.801-3.36-39.365c-1.626-6.677-3.42-11.669-5.003-16.071c-3.516-9.781-6.057-16.849-5.136-38.577
	C169.576,62.861,164.372,40.095,160.959,26.95z M320.849,333.123c-9.444,60.012-11.913,104.625-12.551,122.284
	c-13.127,2.308-40.892,6.557-67.316,6.557c-26.377,0-54.174-4.252-67.315-6.559c-0.639-17.661-3.108-62.275-12.551-122.281
	c-8.95-56.879,8.448-108.462,15.059-125.312h24.177L190.129,253.2l19.511,4.395l11.213-49.782h40.26l11.211,49.782l19.512-4.395
	l-10.222-45.388h24.174C312.404,224.67,329.798,276.249,320.849,333.123z"/>
<g>
</g>
<g>
</g>
<g>
</g>
<g>
</g>
<g>
</g>
<g>
</g>
<g>
</g>
<g>
</g>
<g>
</g>
<g>
</g>
<g>
</g>
<g>
</g>
<g>
</g>
<g>
</g>
<g>
</g>
</svg>
