<?xml version="1.0" encoding="UTF-8"?>
<svg  version="1.1" viewBox="0 0 700 550" xmlns="http://www.w3.org/2000/svg" xmlns:xlink="http://www.w3.org/1999/xlink">

 <g>
  <path d="m303.49 144.98c-17.137 5.4609-38.801 4.8789-59.754 4.3633-12.711-0.34766-25.855-0.68359-37.633 0.39844-20.836 1.9102-42.363 0.91797-63.184-0.015625-12.129-0.54688-24.668-1.1094-36.992-1.1094-2.2734-0.003906-4 1.0859-5.0586 2.6641-1.0312 0.77734-1.8828 1.8047-2.2461 3.1406-2.2773 8.2305 2.0664 19.93 7.9844 34.367 1.3555 3.3164 2.5938 6.3164 3.3945 8.6758 3.4609 10.207 7.8047 20.227 12.012 29.926 3.2031 7.3867 6.5195 15.02 9.3672 22.598 2.2773 6.0703 4.3945 12.711 6.5703 19.516 5.2812 16.559 10.746 33.68 19.531 46.801 1.0078 1.5117 2.6484 2.4922 4.457 2.6641 0.19531 0.023437 0.39844 0.035156 0.59375 0.035156 1.6016 0 3.1523-0.63281 4.2969-1.7812 8.043-8.043 13.957-18.762 19.68-29.121 2.8711-5.207 5.6289-10.086 8.5352-14.555 7.7266 6.6133 14.57 21.391 20.156 33.551 2.7734 6.0469 5.3867 11.754 8.0078 16.34 1.0977 1.9219 3.1289 3.0703 5.2812 3.0703 0.41406 0 0.83594-0.039062 1.2539-0.13281 1.0234-0.21875 1.9023-0.73828 2.6602-1.3906 2.6328-1.1133 4.2617-3.8633 3.6406-6.7578-0.21875-1.0117-0.48828-2.1172-0.72266-3.1602 0.97266-7.5664 2.207-15.164 3.5-22.566 1.0859-6.2422 2.1797-12.488 3.0781-18.762 1.1875-8.1797 1.625-16.871 2.0547-25.277 0.60938-12.008 1.2383-24.414 4.0586-35.062 3.9609-14.941 20.984-27.195 37.445-39.043 9.0156-6.4922 17.527-12.617 24.176-19.297 1.9766-1.9883 2.3398-5.0664 0.87891-7.4531-1.4648-2.3867-4.3711-3.4648-7.0234-2.625zm-117.51 120.13c-3.6055 5.3242-6.9141 11.316-10.113 17.113-3.8906 7.0508-7.8789 14.27-12.414 20.316-5.6406-10.762-9.8398-23.922-13.922-36.73-2.2344-7.0039-4.4258-13.848-6.7695-20.105-2.9609-7.8555-6.332-15.629-9.5977-23.156-4.1094-9.457-8.3555-19.246-11.648-28.973-0.86328-2.5547-2.1914-5.8008-3.6641-9.3867-2.0508-5-4.9336-12.074-6.5352-17.91 4.6367 2.5469 9.3594 4.9609 14.18 7.1914 8.8242 5.5156 17.719 12.156 25.121 17.703l3.7305 2.7812c8.3828 6.2383 17.793 11.609 26.891 16.816 9.6992 5.543 19.668 11.25 28.258 17.941-0.0625 0.21094-0.15625 0.41016-0.19531 0.62891-3.8984 5.7773-7.707 11.711-11.418 17.504-3.918 6.1289-7.8438 12.273-11.902 18.266zm41.898 19.016c-4.1875-17.656-7.7227-35.879-6.7305-50.527 0.54688-0.80078 1.0938-1.6445 1.6406-2.4375 1.7734-2.5469 1.3555-6.0156-0.98047-8.0586-10.359-9.0547-22.641-16.082-34.531-22.883-4.75-2.7148-9.3398-5.3594-13.766-8.0742l9.582 3.4062c5.2188 1.8711 11.805 3.1797 18.777 4.5586 11.828 2.3516 26.551 5.2695 31.734 11.258 0.59766 0.68359 1.3164 1.2031 2.1016 1.5508-2.5977 11.168-3.293 23.211-3.8906 34.934-0.42969 8.5-0.83984 16.531-1.9414 24.152-0.58594 4.0508-1.3086 8.0859-1.9961 12.121zm-26.195-20.844c2.1445-3.2969 4.3242-6.5703 6.4453-9.8828 0.45312-0.70703 0.92578-1.4297 1.3789-2.1406 0.89062 8.6406 2.5156 17.629 4.4805 26.602-3.6367-5.9102-7.6953-10.988-12.305-14.578zm76.68-98.793c-15.062 10.84-30.426 22.043-38.199 36.418-8.5352-7.2305-22.977-10.148-35.926-12.719-6.5195-1.3008-12.672-2.5156-17.047-4.082l-10.148-3.6016c-15.418-5.4414-31.207-11.047-46.105-17.914-0.6875-0.42578-1.3789-0.86328-2.0664-1.2695 4.5195 0.17188 9.043 0.35938 13.484 0.55469 21.234 0.96484 43.176 1.9375 64.836-0.023438 11.07-0.99609 23.289-0.69531 36.215-0.35938 13.277 0.33984 26.836 0.70703 39.688-0.42578-1.543 1.1289-3.1289 2.2773-4.7305 3.4219z"/>
  <path d="m433.93 234.66c-9.1719-7.2969-21.078-10.367-35.184-8.6367-3.332 0.41016-5.6953 3.4492-5.2812 6.7812 0.41406 3.332 3.4375 5.707 6.7812 5.2812 10.707-1.3398 19.422 0.76172 26.105 6.0859 1.1211 0.88672 2.457 1.3203 3.7852 1.3203 1.7852 0 3.5547-0.78516 4.7617-2.2969 2.0898-2.6172 1.6602-6.4492-0.96875-8.5352z"/>
  <path d="m417.28 320.44c-7.2539 6.1445-16.082 10.898-26.258 14.145-3.1992 1.0195-4.9609 4.4414-3.9414 7.6445 0.82422 2.582 3.2148 4.2266 5.7891 4.2266 0.60937 0 1.2305-0.09375 1.8477-0.28516 11.703-3.7422 21.941-9.2734 30.418-16.453 2.5586-2.168 2.8789-6.0078 0.70703-8.5625-2.1602-2.5664-5.9844-2.8789-8.5625-0.71484z"/>
  <path d="m469.8 396.11c-8.4688-2.3125-16.738-5.2266-24.586-8.6562l-4.9609-2.1836c-3.0742-1.3672-6.6602 0.015625-8.0195 3.0977-1.3594 3.0703 0.023437 6.6602 3.0977 8.0195l5.0078 2.1992c8.3828 3.6797 17.219 6.793 26.258 9.2617 0.53906 0.14062 1.0742 0.21094 1.6055 0.21094 2.6719 0 5.1172-1.7734 5.8633-4.4805 0.87891-3.2422-1.0312-6.5859-4.2656-7.4688z"/>
  <path d="m434.59 296.89c-1.2773 3.1016 0.19531 6.6602 3.2969 7.9414 0.76172 0.30859 1.5469 0.46094 2.3125 0.46094 2.3906 0 4.6523-1.418 5.6211-3.7578 3.543-8.5859 5.4141-17.879 5.4141-26.863 0-2.6992-0.16797-5.3594-0.49219-7.9531-0.42188-3.332-3.4648-5.668-6.793-5.2695-3.332 0.42188-5.6914 3.4609-5.2695 6.793 0.26172 2.1055 0.39844 4.2578 0.39844 6.4336 0.007813 7.3945-1.5508 15.078-4.4883 22.215z"/>
  <path d="m601.68 395.32c-1.0859-3.1758-4.5352-4.8828-7.7109-3.793-9.8398 3.3555-20.094 6.0273-30.488 7.9453-3.2969 0.60938-5.4805 3.7734-4.8711 7.0859 0.53906 2.9219 3.0977 4.9727 5.9688 4.9727 0.37109 0 0.73828-0.035156 1.1133-0.10156 10.969-2.0273 21.805-4.8477 32.195-8.3906 3.1719-1.0898 4.875-4.5391 3.793-7.7188z"/>
  <path d="m532.14 402.98c-10.602 0.40234-21.242 0.0625-31.477-1.0547-3.3555-0.39844-6.332 2.0547-6.6992 5.3867-0.35938 3.3359 2.0508 6.3398 5.3867 6.7031 7.8555 0.84375 15.953 1.2812 24.07 1.2891 3.0625 0 6.1328-0.0625 9.1953-0.19141 3.3555-0.12891 5.9688-2.9609 5.8359-6.3164-0.13281-3.3516-2.9336-6.125-6.3125-5.8164z"/>
  <path d="m411.48 371.36c-10.383-5.6289-19.008-11.176-26.363-16.98-2.6367-2.082-6.457-1.6289-8.5352 1.0117-2.0781 2.6367-1.625 6.457 1.0078 8.5352 7.9141 6.2383 17.102 12.164 28.105 18.117 0.91797 0.5 1.9102 0.73438 2.8906 0.73438 2.1562 0 4.25-1.1523 5.3477-3.1797 1.6016-2.9531 0.50391-6.6445-2.4531-8.2383z"/>
  <path d="m363.4 340.09c2.1406-1.9492 2.6367-5.2031 1.043-7.7344-5.2266-8.2891-8.0312-17.086-8.332-26.125l-0.027343-1.3008c-0.0625-3.3281-2.7734-5.9766-6.0742-5.9766h-0.11328c-3.3555 0.0625-6.0312 2.8281-5.9688 6.1836l0.035156 1.4492c0.37109 11.273 3.8008 22.121 10.199 32.262 0.18359 0.29297 0.39063 0.57031 0.61719 0.81641-8.3047-0.078124-16.688-0.89453-24.953-2.418-3.3164-0.65625-6.4727 1.5664-7.0859 4.8672-0.61719 3.2969 1.5664 6.4727 4.8672 7.0859 9.4375 1.7461 19.023 2.6367 28.5 2.6367 1.6914 0 3.3867-0.023438 5.0781-0.078126 3.3555-0.11719 5.9805-2.9297 5.8672-6.2812-0.082032-2.4375-1.5703-4.4805-3.6523-5.3867z"/>
  <path d="m300.23 328.68c-10.512-4.9219-16.363-10.988-17.902-18.52-0.67578-3.2891-3.9141-5.4141-7.168-4.7305-3.2891 0.66797-5.4141 3.8789-4.7422 7.168 2.3281 11.395 10.625 20.512 24.652 27.082 0.83594 0.39844 1.7148 0.57812 2.5742 0.57812 2.2852 0 4.4727-1.2891 5.5117-3.5 1.4258-3.0391 0.11719-6.6602-2.9258-8.0781z"/>
  <path d="m375.01 241.22c-2.3281-2.4375-6.1836-2.5078-8.5898-0.19141-8.0117 7.6602-14.039 17.824-17.898 30.199-1.0039 3.2031 0.78906 6.6211 3.9883 7.6172 0.60547 0.19141 1.2148 0.27344 1.8125 0.27344 2.5938 0 4.9883-1.6641 5.8008-4.2656 3.2422-10.395 8.1875-18.82 14.695-25.043 2.4258-2.3164 2.5117-6.1641 0.19141-8.5898z"/>
 </g>
</svg>
